<svg xmlns="http://www.w3.org/2000/svg" width="1100" height="420">
<rect width="1100" height="420" fill="#ffffff" />
<text x="70" y="24" font-size="18" font-family="Arial">USGS Site 01013500 Daily Discharge Forecast</text>
<line x1="70" y1="380" x2="1070" y2="380" stroke="#333" />
<line x1="70" y1="40" x2="70" y2="380" stroke="#333" />
<polyline fill="none" stroke="#1f77b4" stroke-width="2" points="70.00,274.94 75.59,274.09 81.17,270.27 86.76,272.39 92.35,274.23 97.93,277.21 103.52,271.54 109.11,258.23 114.69,249.74 120.28,244.07 125.87,238.41 131.45,234.16 137.04,224.25 142.63,225.67 148.21,232.75 153.80,238.41 159.39,249.74 164.97,258.23 170.56,265.74 176.15,273.24 181.73,273.38 187.32,277.63 192.91,289.52 198.49,297.03 204.08,303.54 209.66,309.06 215.25,313.59 220.84,316.71 226.42,319.54 232.01,321.81 237.60,326.62 243.18,326.20 248.77,330.73 254.36,336.53 259.94,341.06 265.53,342.34 271.12,337.24 276.70,342.34 282.29,345.88 287.88,349.28 293.46,351.82 299.05,353.81 304.64,355.36 310.22,357.06 315.81,358.34 321.40,359.19 326.98,349.28 332.57,347.15 338.16,339.08 343.74,327.61 349.33,330.73 354.92,332.99 360.50,335.12 366.09,338.09 371.68,337.38 377.26,338.80 382.85,340.64 388.44,341.06 394.02,338.51 399.61,343.05 405.20,346.58 410.78,348.43 416.37,350.12 421.96,351.26 427.54,353.95 433.13,354.80 438.72,357.35 444.30,360.18 449.89,362.02 455.47,363.29 461.06,364.43 466.65,366.12 472.23,367.54 477.82,368.39 483.41,369.38 488.99,370.66 494.58,372.07 500.17,373.35 505.75,375.04 511.34,376.60 516.93,377.45 522.51,378.58 528.10,379.86 533.69,377.88 539.27,373.20 544.86,374.90 550.45,375.75 556.03,377.17 561.62,377.73 567.21,378.44 572.79,379.01 578.38,380.00 583.97,373.63 589.55,369.24 595.14,369.24 600.73,367.40 606.31,369.24 611.90,370.37 617.49,372.21 623.07,373.06 628.66,373.91 634.25,372.35 639.83,358.90 645.42,361.17 651.01,361.31 656.59,362.02 662.18,362.30 667.77,362.30 673.35,362.44 678.94,363.15 684.53,362.30 690.11,364.71 695.70,366.41 701.28,367.12 706.87,368.53 712.46,370.09 718.04,370.66 723.63,369.95 729.22,370.23 734.80,369.81 740.39,368.81 745.98,370.23 751.56,371.08 757.15,368.11 762.74,367.26 768.32,368.25 773.91,368.67 779.50,371.36 785.08,371.22 790.67,370.80 796.26,369.81 801.84,370.37 807.43,370.94 813.02,372.21 818.60,370.94 824.19,370.09 829.78,370.37 835.36,371.08 840.95,371.22 846.54,371.22 852.12,370.80 857.71,368.25 863.30,362.58 868.88,360.32 874.47,359.04 880.06,355.08 885.64,353.95 891.23,349.84 896.82,348.00 902.40,348.14 907.99,348.57 913.58,349.28 919.16,349.13 924.75,347.43 930.34,348.99 935.92,351.97 941.51,353.95 947.09,355.65 952.68,357.20 958.27,350.27 963.85,265.45 969.44,170.45 975.03,133.63 980.61,116.64 986.20,105.32 991.79,79.83 997.37,61.42 1002.96,58.59 1008.55,67.09 1014.13,74.17 1019.72,88.33 1025.31,106.73 1030.89,119.48 1036.48,133.63 1042.07,147.79 1047.65,160.54 1053.24,173.28 1058.83,181.78 1064.41,183.19 1070.00,163.37" />
<polyline fill="none" stroke="#d62728" stroke-width="2" points="70.00,266.27 75.59,266.35 81.17,278.88 86.76,269.36 92.35,263.45 97.93,271.12 103.52,270.98 109.11,275.18 114.69,260.66 120.28,241.78 125.87,238.82 131.45,233.81 137.04,227.25 142.63,224.36 148.21,209.43 153.80,223.99 159.39,235.01 164.97,239.62 170.56,258.27 176.15,264.27 181.73,273.03 187.32,280.92 192.91,273.50 198.49,282.51 204.08,299.74 209.66,301.27 215.25,307.87 220.84,312.35 226.42,316.29 232.01,317.95 237.60,319.89 243.18,321.16 248.77,328.14 254.36,321.96 259.94,332.17 265.53,338.03 271.12,341.35 276.70,340.07 282.29,329.30 287.88,345.20 293.46,344.66 299.05,348.32 304.64,350.16 310.22,352.00 315.81,353.75 321.40,355.34 326.98,355.95 332.57,356.34 338.16,336.02 343.74,343.01 349.33,326.87 354.92,312.89 360.50,330.10 366.09,328.70 371.68,332.60 377.26,337.32 382.85,334.06 388.44,339.27 394.02,340.79 399.61,339.72 405.20,334.52 410.78,346.08 416.37,347.35 421.96,348.05 427.54,349.99 433.13,350.72 438.72,355.24 444.30,353.73 449.89,358.16 455.47,360.87 461.06,361.79 466.65,362.80 472.23,363.76 477.82,365.95 483.41,366.87 488.99,367.14 494.58,368.31 500.17,369.79 505.75,371.27 511.34,372.37 516.93,374.51 522.51,375.90 528.10,376.16 533.69,377.68 539.27,378.96 544.86,373.76 550.45,366.93 556.03,374.84 561.62,373.38 567.21,375.72 572.79,375.52 578.38,376.90 583.97,377.69 589.55,379.02 595.14,365.41 600.73,364.02 606.31,367.24 611.90,362.59 617.49,368.45 623.07,368.30 628.66,371.82 634.25,372.10 639.83,373.28 645.42,369.53 651.01,344.78 656.59,363.72 662.18,357.90 667.77,359.91 673.35,359.90 678.94,360.15 684.53,361.52 690.11,362.54 695.70,360.07 701.28,365.87 706.87,366.25 712.46,366.34 718.04,368.66 723.63,370.03 729.22,369.71 734.80,367.76 740.39,369.00 745.98,367.49 751.56,365.91 757.15,369.52 762.74,369.30 768.32,362.90 773.91,364.73 779.50,366.85 785.08,366.42 790.67,371.41 796.26,368.19 801.84,368.38 807.43,366.79 813.02,368.70 818.60,368.78 824.19,370.54 829.78,366.74 835.36,366.80 840.95,367.91 846.54,368.64 852.12,368.12 857.71,368.01 863.30,367.27 868.88,362.70 874.47,354.18 880.06,355.28 885.64,353.86 891.23,347.05 896.82,349.15 902.40,341.67 907.99,342.92 913.58,344.48 919.16,344.94 924.75,346.31 930.34,345.49 935.92,342.77 941.51,347.71 947.09,351.21 952.68,352.05 958.27,353.78 963.85,355.26 969.44,340.17 975.03,181.03 980.61,86.77 986.20,98.96 991.79,84.53 997.37,76.16 1002.96,40.05 1008.55,40.00 1014.13,57.95 1019.72,77.44 1025.31,83.79 1030.89,107.86 1036.48,132.37 1042.07,141.49 1047.65,158.39 1053.24,171.00 1058.83,181.70 1064.41,193.57 1070.00,196.53" />
<text x="880" y="24" font-size="12" font-family="Arial" fill="#1f77b4">Actual</text>
<text x="950" y="24" font-size="12" font-family="Arial" fill="#d62728">Predicted</text>
<text x="10" y="50" font-size="11" font-family="Arial">2591.31</text>
<text x="10" y="380" font-size="11" font-family="Arial">190.00</text>
</svg>