<svg xmlns="http://www.w3.org/2000/svg" width="1400" height="620" viewBox="0 0 1400 620">
<defs>
<linearGradient id="bg" x1="0" x2="0" y1="0" y2="1">
<stop offset="0%" stop-color="#0b1822"/>
<stop offset="100%" stop-color="#102636"/>
</linearGradient>
<filter id="shadow" x="-20%" y="-20%" width="140%" height="140%">
<feDropShadow dx="0" dy="10" stdDeviation="12" flood-color="#000000" flood-opacity="0.22"/>
</filter>
</defs>
<rect width="1400" height="620" rx="24" fill="url(#bg)"/>
<text x="60" y="60" fill="#eef7fb" font-size="30" font-family="Segoe UI" font-weight="700">Static Basin Factors</text>
<text x="60" y="92" fill="#9eb7c5" font-size="16" font-family="Segoe UI">Topography, climate, and hydrologic signatures extracted from CAMELS for the target basin.</text>
<rect x="60" y="150" width="390" height="230" rx="22" fill="#0f2130" stroke="#27495e"/>
<text x="88" y="190" fill="#39d0ff" font-size="22" font-family="Segoe UI" font-weight="700">Topography</text>
<text x="88" y="228" fill="#c9d9e2" font-size="13" font-family="Segoe UI">Elevation</text>
<rect x="198" y="216" width="230" height="16" rx="8" fill="#173244"/>
<rect x="198" y="216" width="24.4" height="16" rx="8" fill="#39d0ff"/>
<text x="438" y="228" text-anchor="end" fill="#eef7fb" font-size="12" font-family="Segoe UI">250.31</text>
<text x="88" y="262" fill="#c9d9e2" font-size="13" font-family="Segoe UI">Slope</text>
<rect x="198" y="250" width="230" height="16" rx="8" fill="#173244"/>
<rect x="198" y="250" width="2.1" height="16" rx="8" fill="#39d0ff"/>
<text x="438" y="262" text-anchor="end" fill="#eef7fb" font-size="12" font-family="Segoe UI">21.64</text>
<text x="88" y="296" fill="#c9d9e2" font-size="13" font-family="Segoe UI">Area</text>
<rect x="198" y="284" width="230" height="16" rx="8" fill="#173244"/>
<rect x="198" y="284" width="220.0" height="16" rx="8" fill="#39d0ff"/>
<text x="438" y="296" text-anchor="end" fill="#eef7fb" font-size="12" font-family="Segoe UI">2252.70</text>
<rect x="505" y="150" width="390" height="230" rx="22" fill="#0f2130" stroke="#27495e"/>
<text x="533" y="190" fill="#43f0c7" font-size="22" font-family="Segoe UI" font-weight="700">Climate</text>
<text x="533" y="228" fill="#c9d9e2" font-size="13" font-family="Segoe UI">Precip</text>
<rect x="643" y="216" width="230" height="16" rx="8" fill="#173244"/>
<rect x="643" y="216" width="220.0" height="16" rx="8" fill="#43f0c7"/>
<text x="883" y="228" text-anchor="end" fill="#eef7fb" font-size="12" font-family="Segoe UI">3.13</text>
<text x="533" y="262" fill="#c9d9e2" font-size="13" font-family="Segoe UI">PET</text>
<rect x="643" y="250" width="230" height="16" rx="8" fill="#173244"/>
<rect x="643" y="250" width="138.7" height="16" rx="8" fill="#43f0c7"/>
<text x="883" y="262" text-anchor="end" fill="#eef7fb" font-size="12" font-family="Segoe UI">1.97</text>
<text x="533" y="296" fill="#c9d9e2" font-size="13" font-family="Segoe UI">SnowFrac</text>
<rect x="643" y="284" width="230" height="16" rx="8" fill="#173244"/>
<rect x="643" y="284" width="22.1" height="16" rx="8" fill="#43f0c7"/>
<text x="883" y="296" text-anchor="end" fill="#eef7fb" font-size="12" font-family="Segoe UI">0.31</text>
<text x="533" y="330" fill="#c9d9e2" font-size="13" font-family="Segoe UI">Aridity</text>
<rect x="643" y="318" width="230" height="16" rx="8" fill="#173244"/>
<rect x="643" y="318" width="44.4" height="16" rx="8" fill="#43f0c7"/>
<text x="883" y="330" text-anchor="end" fill="#eef7fb" font-size="12" font-family="Segoe UI">0.63</text>
<rect x="950" y="150" width="390" height="230" rx="22" fill="#0f2130" stroke="#27495e"/>
<text x="978" y="190" fill="#ffb562" font-size="22" font-family="Segoe UI" font-weight="700">Hydrology</text>
<text x="978" y="228" fill="#c9d9e2" font-size="13" font-family="Segoe UI">Q mean</text>
<rect x="1088" y="216" width="230" height="16" rx="8" fill="#173244"/>
<rect x="1088" y="216" width="58.7" height="16" rx="8" fill="#ffb562"/>
<text x="1328" y="228" text-anchor="end" fill="#eef7fb" font-size="12" font-family="Segoe UI">1.70</text>
<text x="978" y="262" fill="#c9d9e2" font-size="13" font-family="Segoe UI">Runoff</text>
<rect x="1088" y="250" width="230" height="16" rx="8" fill="#173244"/>
<rect x="1088" y="250" width="18.8" height="16" rx="8" fill="#ffb562"/>
<text x="1328" y="262" text-anchor="end" fill="#eef7fb" font-size="12" font-family="Segoe UI">0.54</text>
<text x="978" y="296" fill="#c9d9e2" font-size="13" font-family="Segoe UI">Baseflow</text>
<rect x="1088" y="284" width="230" height="16" rx="8" fill="#173244"/>
<rect x="1088" y="284" width="20.2" height="16" rx="8" fill="#ffb562"/>
<text x="1328" y="296" text-anchor="end" fill="#eef7fb" font-size="12" font-family="Segoe UI">0.59</text>
<text x="978" y="330" fill="#c9d9e2" font-size="13" font-family="Segoe UI">Q95</text>
<rect x="1088" y="318" width="230" height="16" rx="8" fill="#173244"/>
<rect x="1088" y="318" width="220.0" height="16" rx="8" fill="#ffb562"/>
<text x="1328" y="330" text-anchor="end" fill="#eef7fb" font-size="12" font-family="Segoe UI">6.37</text>
</svg>