<svg xmlns="http://www.w3.org/2000/svg" width="1400" height="520" viewBox="0 0 1400 520">
<defs></defs>
<rect width="1400" height="520" rx="24" fill="#ffffff"/>
<text x="60" y="60" fill="#142433" font-size="30" font-family="Segoe UI" font-weight="700">Discharge Behavior</text>
<text x="60" y="92" fill="#4e6678" font-size="16" font-family="Segoe UI">Long-term daily discharge with monthly mean trend overlay.</text>
<rect x="50" y="100" width="1330" height="370" rx="20" fill="#ffffff" stroke="#c7d7e2"/>
<line x1="70" y1="120.0" x2="1360" y2="120.0" stroke="#dbe6ee"/>
<line x1="70" y1="202.5" x2="1360" y2="202.5" stroke="#dbe6ee"/>
<line x1="70" y1="285.0" x2="1360" y2="285.0" stroke="#dbe6ee"/>
<line x1="70" y1="367.5" x2="1360" y2="367.5" stroke="#dbe6ee"/>
<line x1="70" y1="450.0" x2="1360" y2="450.0" stroke="#dbe6ee"/>
<polyline fill="none" stroke="#39d0ff" stroke-width="2.2" points="70.00,417.23 75.38,436.46 80.75,426.68 86.12,216.47 91.50,353.02 96.88,430.03 102.25,440.50 107.62,448.45 113.00,444.64 118.38,431.50 123.75,425.11 129.12,437.76 134.50,439.88 139.88,272.85 145.25,405.49 150.62,427.43 156.00,448.09 161.38,443.98 166.75,439.45 172.12,433.23 177.50,442.16 182.88,442.48 188.25,326.30 193.62,369.97 199.00,425.57 204.38,437.69 209.75,447.44 215.12,446.20 220.50,421.69 225.88,435.28 231.25,443.10 236.63,443.53 242.00,208.65 247.38,388.55 252.75,431.76 258.12,367.36 263.50,393.44 268.88,325.97 274.25,377.47 279.62,421.30 285.00,440.99 290.38,398.65 295.75,383.98 301.12,425.05 306.50,422.41 311.88,419.51 317.25,434.43 322.62,436.91 328.00,393.76 333.38,429.64 338.75,437.37 344.12,216.79 349.50,334.12 354.88,425.21 360.25,443.23 365.62,440.46 371.00,288.49 376.38,277.74 381.75,419.51 387.12,400.93 392.50,402.56 397.88,356.61 403.25,394.41 408.62,430.13 414.00,442.78 419.38,440.07 424.75,368.34 430.12,414.95 435.50,431.14 440.87,441.60 446.25,424.33 451.62,325.00 457.00,419.18 462.37,432.61 467.75,445.29 473.12,439.68 478.50,367.69 483.88,421.50 489.25,416.25 494.62,428.21 500.00,120.00 505.38,400.93 510.75,394.74 516.12,393.76 521.50,437.76 526.88,398.00 532.25,407.45 537.62,435.64 543.00,438.22 548.38,372.25 553.75,321.74 559.12,422.21 564.50,398.65 569.88,435.64 575.25,418.20 580.62,415.92 586.00,407.78 591.38,420.16 596.75,431.79 602.12,283.93 607.50,418.86 612.88,414.29 618.25,440.46 623.62,429.19 629.00,387.24 634.38,368.67 639.75,407.45 645.12,437.86 650.50,403.86 655.88,130.75 661.25,341.62 666.62,414.95 672.00,391.48 677.38,407.45 682.75,415.92 688.12,418.20 693.50,435.05 698.88,442.22 704.25,374.53 709.62,364.76 715.00,413.32 720.38,437.95 725.75,445.91 731.12,429.58 736.50,417.88 741.88,430.13 747.25,422.77 752.62,415.27 758.00,239.61 763.38,263.07 768.75,391.15 774.12,422.93 779.50,427.79 784.88,435.38 790.25,405.49 795.62,420.29 801.00,436.29 806.38,440.59 811.75,236.02 817.13,414.95 822.50,436.19 827.88,442.19 833.25,438.08 838.62,405.49 844.00,391.81 849.38,426.19 854.75,440.56 860.13,356.61 865.50,398.32 870.88,415.92 876.25,421.89 881.62,432.45 887.00,431.63 892.37,412.66 897.75,409.73 903.12,429.32 908.50,408.75 913.88,291.43 919.25,391.48 924.62,404.52 930.00,420.91 935.37,442.55 940.75,428.99 946.12,423.78 951.50,435.25 956.88,413.64 962.25,390.83 967.62,264.38 973.00,383.33 978.38,438.54 983.75,442.16 989.12,444.90 994.50,396.69 999.88,428.50 1005.25,426.25 1010.62,433.39 1016.00,328.25 1021.38,396.04 1026.75,440.82 1032.12,440.69 1037.50,450.00 1042.88,442.19 1048.25,428.93 1053.62,411.36 1059.00,431.93 1064.38,427.13 1069.75,215.49 1075.12,400.93 1080.50,436.72 1085.88,445.42 1091.25,443.92 1096.62,390.83 1102.00,392.78 1107.38,428.67 1112.75,435.48 1118.12,273.50 1123.50,348.46 1128.88,439.58 1134.25,448.19 1139.62,449.64 1145.00,385.61 1150.38,398.65 1155.75,381.05 1161.12,436.13 1166.50,436.68 1171.88,363.45 1177.25,422.38 1182.62,444.77 1188.00,449.43 1193.38,435.54 1198.75,419.18 1204.12,415.27 1209.50,435.41 1214.88,437.17 1220.25,407.45 1225.62,344.55 1231.00,373.88 1236.38,414.29 1241.75,435.90 1247.12,443.76 1252.50,387.90 1257.88,379.42 1263.25,420.09 1268.62,433.82 1274.00,183.23 1279.38,406.47 1284.75,402.56 1290.12,393.11 1295.50,381.05 1300.88,397.35 1306.25,423.19 1311.62,415.60 1317.00,439.62 1322.38,399.63 1327.75,379.75 1333.12,417.55 1338.50,416.25 1343.88,436.42 1349.25,444.77 1354.62,443.89 1360.00,374.21"/>
<polyline fill="none" stroke="#43f0c7" stroke-width="3.2" points="70.00,428.65 74.31,436.92 78.63,423.88 82.94,239.50 87.26,291.15 91.57,402.52 95.89,431.07 100.20,439.34 104.52,446.79 108.83,446.95 113.14,430.64 117.46,422.51 121.77,423.71 126.09,437.85 130.40,441.25 134.72,380.22 139.03,327.78 143.34,408.39 147.66,432.17 151.97,444.01 156.29,447.24 160.60,442.25 164.92,439.04 169.23,433.10 173.55,440.13 177.86,443.48 182.17,441.76 186.49,337.83 190.80,354.13 195.12,405.44 199.43,415.42 203.75,441.49 208.06,448.41 212.37,447.48 216.69,436.93 221.00,428.89 225.32,438.67 229.63,442.58 233.95,443.01 238.26,354.37 242.58,298.20 246.89,400.89 251.20,425.03 255.52,345.16 259.83,426.46 264.15,389.10 268.46,343.34 272.78,364.51 277.09,404.48 281.40,436.89 285.72,439.43 290.03,342.18 294.35,377.78 298.66,420.48 302.98,409.33 307.29,389.87 311.61,406.34 315.92,430.06 320.23,430.52 324.55,394.28 328.86,413.73 333.18,430.89 337.49,437.04 341.81,272.90 346.12,241.77 350.43,382.72 354.75,422.71 359.06,442.75 363.38,435.44 367.69,335.98 372.01,319.01 376.32,352.94 380.64,395.97 384.95,396.53 389.26,415.40 393.58,275.37 397.89,345.70 402.21,398.35 406.52,422.96 410.84,436.80 415.15,445.59 419.46,395.73 423.78,335.33 428.09,400.06 432.41,421.95 436.72,438.31 441.04,437.27 445.35,375.88 449.67,276.45 453.98,402.90 458.29,431.24 462.61,436.27 466.92,444.89 471.24,441.75 475.55,378.80 479.87,410.44 484.18,411.35 488.49,415.45 492.81,427.28 497.12,308.16 501.44,203.35 505.75,404.70 510.07,397.58 514.38,387.74 518.70,432.29 523.01,422.85 527.32,382.97 531.64,407.86 535.95,432.45 540.27,437.21 544.58,430.03 548.90,263.51 553.21,329.16 557.53,411.25 561.84,411.68 566.15,402.37 570.47,440.93 574.78,422.16 579.10,412.27 583.41,386.10 587.73,422.93 592.04,427.61 596.35,423.33 600.67,258.79 604.98,390.55 609.30,424.61 613.61,415.82 617.93,441.12 622.24,432.28 626.56,380.60 630.87,376.91 635.18,332.02 639.50,411.43 643.81,435.72 648.13,419.88 652.44,346.32 656.76,257.51 661.07,336.05 665.38,392.14 669.70,370.38 674.01,361.53 678.33,407.25 682.64,417.68 686.96,418.89 691.27,428.76 695.59,440.54 699.90,387.89 704.21,342.02 708.53,352.12 712.84,401.27 717.16,404.78 721.47,439.90 725.79,446.76 730.10,430.94 734.41,397.47 738.73,429.82 743.04,433.97 747.36,429.13 751.67,421.19 755.99,349.93 760.30,337.03 764.62,344.50 768.93,398.31 773.24,422.24 777.56,430.01 781.87,434.91 786.19,428.98 790.50,413.61 794.82,426.57 799.13,434.85 803.44,439.78 807.76,336.11 812.07,271.99 816.39,406.12 820.70,427.74 825.02,435.45 829.33,443.40 833.65,429.70 837.96,405.67 842.27,398.57 846.59,411.56 850.90,432.61 855.22,441.30 859.53,363.17 863.85,349.00 868.16,402.50 872.47,425.16 876.79,424.99 881.10,432.38 885.42,426.99 889.73,420.37 894.05,404.26 898.36,408.73 902.68,422.78 906.99,406.36 911.30,295.02 915.62,339.49 919.93,395.23 924.25,412.58 928.56,429.07 932.88,435.25 937.19,441.03 941.51,419.95 945.82,420.97 950.13,434.45 954.45,437.14 958.76,407.55 963.08,280.13 967.39,232.83 971.71,399.92 976.02,416.80 980.33,444.10 984.65,444.03 988.96,440.65 993.28,387.23 997.59,418.10 1001.91,423.10 1006.22,428.59 1010.54,433.11 1014.85,341.83 1019.16,201.74 1023.48,424.04 1027.79,442.55 1032.11,445.11 1036.42,448.84 1040.74,445.71 1045.05,419.36 1049.36,415.74 1053.68,409.00 1057.99,428.97 1062.31,433.61 1066.62,260.77 1070.94,260.59 1075.25,396.08 1079.57,425.28 1083.88,443.31 1088.19,444.63 1092.51,438.34 1096.82,385.97 1101.14,406.63 1105.45,422.18 1109.77,435.06 1114.08,432.11 1118.39,315.72 1122.71,295.66 1127.02,421.04 1131.34,444.33 1135.65,449.01 1139.97,450.22 1144.28,419.96 1148.60,406.36 1152.91,356.96 1157.22,403.81 1161.54,436.24 1165.85,423.79 1170.17,309.83 1174.48,394.31 1178.80,430.60 1183.11,444.42 1187.42,448.94 1191.74,446.94 1196.05,432.73 1200.37,418.52 1204.68,417.82 1209.00,432.62 1213.31,439.16 1217.63,433.38 1221.94,290.85 1226.25,319.90 1230.57,366.39 1234.88,410.42 1239.20,427.10 1243.51,439.71 1247.83,404.37 1252.14,390.32 1256.45,358.15 1260.77,385.08 1265.08,424.48 1269.40,431.93 1273.71,313.45 1278.03,346.74 1282.34,397.98 1286.66,402.01 1290.97,403.69 1295.28,396.66 1299.60,395.54 1303.91,411.01 1308.23,378.11 1312.54,413.68 1316.86,437.91 1321.17,413.78 1325.48,319.11 1329.80,401.79 1334.11,423.61 1338.43,419.84 1342.74,436.95 1347.06,442.76 1351.37,443.63 1355.69,443.18 1360.00,406.67"/>
<text x="70" y="492" fill="#4e6678" font-size="12" font-family="Segoe UI">2000-01-01</text>
<text x="1255" y="492" fill="#4e6678" font-size="12" font-family="Segoe UI">2024-12-31</text>
<text x="1120" y="60" fill="#39d0ff" font-size="13" font-family="Segoe UI">Daily discharge</text>
<text x="1250" y="60" fill="#43f0c7" font-size="13" font-family="Segoe UI">Monthly mean</text>
</svg>