<svg xmlns="http://www.w3.org/2000/svg" width="1200" height="520" viewBox="0 0 1200 520">
<defs>
<linearGradient id="bg" x1="0" x2="0" y1="0" y2="1">
<stop offset="0%" stop-color="#0b1822"/>
<stop offset="100%" stop-color="#102636"/>
</linearGradient>
<filter id="shadow" x="-20%" y="-20%" width="140%" height="140%">
<feDropShadow dx="0" dy="10" stdDeviation="12" flood-color="#000000" flood-opacity="0.22"/>
</filter>
</defs>
<rect width="1200" height="520" rx="24" fill="url(#bg)"/>
<text x="60" y="60" fill="#eef7fb" font-size="30" font-family="Segoe UI" font-weight="700">Factor 7: CAMELS Topography</text>
<text x="60" y="92" fill="#9eb7c5" font-size="16" font-family="Segoe UI">Static terrain descriptors for the basin.</text>
<rect x="50" y="120" width="1100" height="350" rx="20" fill="#0f2130" stroke="#27495e"/>
<text x="70" y="162" fill="#c9d9e2" font-size="14" font-family="Segoe UI">Elevation</text>
<rect x="330" y="149" width="760" height="18" rx="9" fill="#173244"/>
<rect x="330" y="149" width="81.1" height="18" rx="9" fill="#39d0ff"/>
<text x="1110" y="162" text-anchor="end" fill="#eef7fb" font-size="13" font-family="Segoe UI">250.310</text>
<text x="70" y="210" fill="#c9d9e2" font-size="14" font-family="Segoe UI">Slope</text>
<rect x="330" y="197" width="760" height="18" rx="9" fill="#173244"/>
<rect x="330" y="197" width="7.0" height="18" rx="9" fill="#39d0ff"/>
<text x="1110" y="210" text-anchor="end" fill="#eef7fb" font-size="13" font-family="Segoe UI">21.642</text>
<text x="70" y="258" fill="#c9d9e2" font-size="14" font-family="Segoe UI">Area</text>
<rect x="330" y="245" width="760" height="18" rx="9" fill="#173244"/>
<rect x="330" y="245" width="730.0" height="18" rx="9" fill="#39d0ff"/>
<text x="1110" y="258" text-anchor="end" fill="#eef7fb" font-size="13" font-family="Segoe UI">2252.700</text>
</svg>