<svg xmlns="http://www.w3.org/2000/svg" width="1100" height="520" viewBox="0 0 1100 520">
<defs></defs>
<rect width="1100" height="520" rx="24" fill="#ffffff"/>
<text x="50" y="56" fill="#142433" font-size="30" font-family="Segoe UI" font-weight="700">Factor 5: Site Metadata</text>
<text x="50" y="88" fill="#4e6678" font-size="16" font-family="Segoe UI">Gauge profile shown as numeric site descriptors plus a location point.</text>
<rect x="50" y="120" width="620" height="340" rx="20" fill="#ffffff" stroke="#c7d7e2"/>
<rect x="720" y="120" width="320" height="340" rx="20" fill="#ffffff" stroke="#c7d7e2"/>
<text x="80" y="170" fill="#4e6678" font-size="14" font-family="Segoe UI">Drain area</text>
<rect x="220" y="158" width="380" height="16" rx="8" fill="#e8f0f5"/>
<rect x="220" y="158" width="360.0" height="16" rx="8" fill="#2b6cb0"/>
<text x="615" y="170" text-anchor="end" fill="#142433" font-size="13" font-family="Segoe UI">870.00</text>
<text x="80" y="228" fill="#4e6678" font-size="14" font-family="Segoe UI">Altitude</text>
<rect x="220" y="216" width="380" height="16" rx="8" fill="#e8f0f5"/>
<rect x="220" y="216" width="211.3" height="16" rx="8" fill="#2b6cb0"/>
<text x="615" y="228" text-anchor="end" fill="#142433" font-size="13" font-family="Segoe UI">510.64</text>
<text x="80" y="286" fill="#4e6678" font-size="14" font-family="Segoe UI">Latitude</text>
<rect x="220" y="274" width="380" height="16" rx="8" fill="#e8f0f5"/>
<rect x="220" y="274" width="19.5" height="16" rx="8" fill="#2b6cb0"/>
<text x="615" y="286" text-anchor="end" fill="#142433" font-size="13" font-family="Segoe UI">47.24</text>
<text x="80" y="344" fill="#4e6678" font-size="14" font-family="Segoe UI">Longitude</text>
<rect x="220" y="332" width="380" height="16" rx="8" fill="#e8f0f5"/>
<rect x="220" y="332" width="28.4" height="16" rx="8" fill="#2b6cb0"/>
<text x="615" y="344" text-anchor="end" fill="#142433" font-size="13" font-family="Segoe UI">68.58</text>
<text x="880" y="156" text-anchor="middle" fill="#2f855a" font-size="18" font-family="Segoe UI" font-weight="700">Gauge Location</text>
<rect x="760" y="190" width="240" height="180" rx="18" fill="#f8fbfd" stroke="#dbe6ee"/>
<circle cx="880" cy="280" r="58" fill="#edf5fb" stroke="#2b6cb0" stroke-width="2"/>
<circle cx="876.0" cy="283.5" r="7" fill="#dd6b20"/>
<text x="880" y="396" text-anchor="middle" fill="#4e6678" font-size="13" font-family="Segoe UI">Fish River near Fort Kent, Maine</text>
</svg>