<svg xmlns="http://www.w3.org/2000/svg" width="900" height="620" viewBox="0 0 900 620">
<defs></defs>
<rect width="900" height="620" rx="24" fill="#ffffff"/>
<text x="60" y="60" fill="#142433" font-size="30" font-family="Segoe UI" font-weight="700">Factor 12: Basin Geometry</text>
<text x="60" y="92" fill="#4e6678" font-size="16" font-family="Segoe UI">Upstream basin polygon used to anchor catchment-level aggregation.</text>
<rect x="60" y="120" width="780" height="430" rx="22" fill="#ffffff" stroke="#c7d7e2"/>
<polygon points="185.37,305.23 185.74,304.20 183.70,303.42 176.61,303.79 172.32,302.74 165.45,303.87 162.51,302.04 165.47,298.60 161.87,295.10 162.05,294.34 165.75,294.38 166.90,290.95 180.32,286.19 188.34,279.63 190.71,277.30 190.28,275.32 187.43,272.74 187.52,270.71 190.97,270.14 190.43,268.75 191.77,267.92 195.52,266.98 198.61,267.35 197.80,266.34 199.22,264.49 210.38,265.03 213.50,261.20 213.07,259.53 214.73,257.54 225.33,257.72 228.05,256.80 230.87,254.82 230.23,251.86 238.34,252.67 242.39,250.81 249.21,250.08 253.47,251.67 262.96,250.87 267.82,245.65 272.58,245.21 275.35,246.15 278.25,244.16 278.68,242.08 289.52,242.67 288.07,241.32 289.16,240.43 292.31,238.91 294.11,239.02 295.95,236.96 299.85,235.54 298.42,235.18 298.14,232.54 308.41,231.51 307.90,228.35 305.46,226.14 315.03,225.13 309.84,222.88 308.36,219.35 304.80,218.73 304.30,216.61 307.87,215.01 316.86,214.60 321.74,216.87 324.16,216.68 329.14,220.99 332.94,219.30 341.60,221.52 346.00,219.98 353.70,221.59 361.87,218.58 362.46,217.70 360.67,215.65 361.43,215.38 365.13,215.03 372.28,216.58 374.08,216.25 374.86,214.33 378.43,211.44 380.12,211.33 380.71,208.96 383.68,207.72 383.19,207.02 384.98,205.97 385.95,203.23 387.71,202.13 393.02,202.37 396.88,203.39 399.56,206.44 406.93,208.29 410.63,211.01 418.43,214.15 418.42,215.78 419.61,216.48 427.95,218.96 425.83,227.39 427.13,228.28 430.13,227.84 433.83,229.16 434.09,230.42 439.74,231.32 442.61,234.87 444.65,235.35 442.22,237.48 445.65,238.40 448.70,236.63 459.48,239.12 464.17,239.06 465.43,238.07 466.68,238.98 467.67,238.17 470.98,238.10 471.40,236.59 473.47,235.35 466.02,234.04 459.50,231.05 454.72,230.61 451.47,224.87 453.68,222.63 457.24,221.91 471.70,224.87 475.15,224.32 467.44,219.76 467.54,217.93 473.59,215.09 482.48,215.83 483.60,215.15 485.95,216.43 489.31,215.53 486.13,213.02 484.22,208.62 482.78,207.94 483.79,206.25 482.41,205.27 483.73,204.64 485.94,204.54 491.13,202.13 497.47,203.06 501.31,202.37 501.68,200.65 509.66,201.29 512.73,200.68 513.79,199.33 519.88,198.38 525.42,198.10 526.52,198.80 533.15,198.03 534.40,198.75 535.50,195.46 540.47,193.37 540.08,192.20 541.84,192.13 542.71,193.25 545.68,193.42 549.28,195.24 553.06,193.65 559.26,196.44 559.86,197.51 562.06,195.28 569.82,192.51 574.51,193.07 574.11,191.56 576.47,189.72 579.71,189.33 587.15,190.88 591.93,188.33 598.25,186.90 602.84,187.69 603.78,186.27 597.88,185.44 595.61,183.80 591.40,183.21 587.42,183.81 586.74,182.20 582.63,179.91 583.00,176.75 580.85,175.42 588.00,173.83 592.08,176.04 604.88,178.80 605.86,176.50 604.06,175.79 605.06,174.68 604.25,171.66 606.69,169.99 614.06,170.05 615.95,166.80 624.99,167.61 634.10,165.63 637.09,166.03 635.83,162.28 643.77,160.09 646.74,160.00 658.11,164.08 660.82,164.05 662.81,166.85 661.63,170.29 663.59,171.33 663.83,173.40 667.41,173.68 668.77,174.73 667.53,176.92 668.44,178.02 672.20,178.77 675.07,180.70 671.18,182.83 671.46,183.94 679.13,187.33 681.19,190.99 691.38,193.19 692.53,198.70 691.03,199.80 698.19,205.16 698.40,206.85 701.71,207.23 704.26,208.45 703.93,209.32 712.10,208.41 721.12,210.09 727.63,215.02 735.23,215.57 718.21,221.08 718.49,225.56 714.88,227.24 708.59,228.13 720.38,233.81 731.12,241.74 732.69,241.93 732.34,244.62 729.17,246.99 729.32,248.90 737.35,250.63 741.13,252.68 739.12,257.25 740.32,258.93 747.29,259.86 746.29,261.16 747.60,263.13 756.64,266.20 753.29,268.61 753.15,269.82 755.96,271.37 770.12,273.22 774.04,271.93 776.11,268.35 780.00,270.25 778.63,271.71 777.32,279.77 775.79,281.91 776.77,286.77 768.86,286.59 770.81,288.31 770.15,291.56 771.37,297.48 767.07,299.54 759.13,300.47 754.10,297.65 753.05,296.48 753.55,292.97 751.44,289.91 745.72,284.76 740.11,282.72 739.37,279.66 736.69,276.68 727.36,273.88 724.36,270.37 716.84,274.21 706.44,270.76 705.05,263.08 699.25,264.44 698.81,261.63 700.79,257.04 698.99,254.72 699.51,253.83 697.33,253.03 701.00,252.29 701.17,251.13 698.80,249.69 694.23,249.53 692.06,247.75 687.84,246.45 681.00,247.13 679.79,247.70 679.55,249.44 677.28,247.72 671.67,249.34 672.17,252.74 667.37,253.05 661.65,252.01 658.05,253.04 660.74,258.93 667.49,262.62 668.16,263.88 667.39,266.79 664.82,267.98 665.34,268.83 669.48,270.52 673.07,275.54 671.97,277.15 663.43,281.11 661.31,283.39 654.70,279.17 649.23,279.45 641.90,275.27 640.39,274.18 637.42,267.15 632.32,267.50 624.79,264.25 619.27,263.88 618.17,262.99 616.82,264.76 618.36,266.16 618.47,270.02 616.56,271.90 614.43,272.39 617.16,274.69 613.57,278.41 608.55,276.83 606.35,278.59 608.12,281.05 607.19,283.34 607.99,285.53 610.29,286.52 610.13,287.87 612.75,290.61 612.78,292.85 616.78,294.68 616.86,296.36 621.33,297.84 622.74,296.12 626.97,297.03 632.14,299.68 633.94,301.66 639.76,302.92 641.73,307.27 644.80,309.31 641.97,313.65 638.81,315.99 631.92,317.91 631.26,318.90 623.24,317.65 621.10,314.90 617.43,313.69 611.87,315.18 610.46,318.08 610.99,321.03 608.83,322.95 613.73,324.37 614.48,325.94 608.98,330.73 609.38,332.66 611.28,334.15 610.66,337.02 608.35,339.53 601.88,339.41 600.65,340.43 603.46,343.62 598.78,347.18 598.63,350.58 593.47,353.35 593.17,354.14 595.08,354.89 593.39,357.60 592.24,357.39 592.84,358.72 589.71,360.67 589.52,362.64 585.21,367.06 585.54,368.51 582.82,372.25 576.49,374.94 573.17,378.82 568.36,379.68 568.03,382.09 566.00,384.32 566.98,387.77 562.03,392.05 563.78,394.37 554.53,393.30 553.09,390.60 553.11,387.16 548.45,385.87 547.03,383.53 544.94,383.00 537.54,385.52 538.49,389.22 536.65,393.63 535.14,395.41 530.83,397.49 521.15,394.45 510.72,394.55 506.39,391.14 503.91,386.40 501.27,385.93 499.55,383.39 501.13,382.41 501.28,380.93 495.14,379.92 490.97,382.07 482.01,379.91 478.81,377.46 473.95,378.93 466.07,376.97 467.12,375.28 464.12,373.72 460.90,366.61 462.27,364.39 468.20,363.49 464.86,361.07 462.54,360.59 462.00,359.41 466.08,358.79 467.40,355.15 461.21,356.62 453.61,356.61 449.90,359.15 444.18,360.98 443.67,362.10 446.97,364.85 446.81,365.98 443.44,368.06 443.14,370.75 447.02,373.98 442.13,376.99 440.46,380.05 443.39,381.76 443.00,383.92 446.15,385.55 447.22,387.57 451.03,390.63 455.10,391.82 456.45,394.71 463.61,396.99 461.27,399.62 462.58,402.62 460.85,404.78 461.17,407.02 453.80,409.60 464.84,411.92 467.36,415.85 471.11,417.91 466.62,421.62 463.76,421.83 453.06,426.56 459.40,428.51 460.02,431.67 465.79,434.09 466.30,436.06 464.86,437.75 467.46,439.58 467.29,442.93 468.44,443.79 477.65,446.60 478.59,448.70 480.79,450.23 483.79,450.47 486.43,452.25 487.32,454.15 492.14,453.52 496.13,454.71 497.14,456.26 496.43,459.83 487.25,462.59 488.65,464.99 487.98,466.42 478.61,467.42 477.78,472.74 479.56,473.70 478.58,478.72 479.46,481.10 477.47,482.67 473.95,482.87 472.95,483.90 467.40,484.08 464.19,482.84 463.80,485.23 456.42,482.94 450.56,482.60 449.89,481.14 451.04,478.27 448.45,475.39 436.96,471.91 433.84,468.07 429.26,470.10 427.68,469.92 424.01,465.24 415.54,467.00 410.67,469.87 408.27,472.83 410.22,475.20 403.21,476.42 394.31,475.93 389.83,478.98 387.96,476.84 382.66,474.50 375.72,477.03 371.13,476.13 366.34,473.33 363.30,469.52 360.82,470.08 356.80,469.49 354.71,470.25 341.49,467.62 336.91,467.76 333.88,469.10 332.17,471.71 330.37,472.48 332.25,475.58 336.16,476.53 336.28,477.58 332.54,479.93 331.97,481.78 333.07,486.84 328.60,486.72 325.88,488.23 324.05,487.32 315.37,488.09 311.79,489.86 305.44,490.65 300.52,488.93 297.24,489.19 295.47,491.21 291.56,491.52 290.54,493.20 286.93,494.55 286.46,498.36 290.41,501.29 292.85,501.43 294.74,503.98 288.36,506.64 293.07,509.44 291.44,510.87 292.60,512.55 297.91,514.76 297.98,516.85 293.72,518.07 275.65,520.00 269.14,517.98 265.15,514.32 259.89,513.44 259.97,509.10 258.84,507.65 252.77,506.68 249.19,507.31 247.85,509.91 246.33,510.57 237.01,509.68 227.40,504.48 226.87,499.97 219.22,500.39 210.38,498.48 204.57,496.40 202.99,494.85 199.51,494.37 196.45,492.08 197.22,489.16 193.40,488.10 189.32,488.33 193.45,486.27 191.81,485.58 192.91,484.28 204.42,481.89 206.02,480.47 205.42,479.56 203.71,478.57 191.72,479.79 187.87,477.99 182.60,478.50 178.79,477.84 176.97,476.72 176.59,474.60 180.06,471.51 171.49,467.00 169.54,467.21 166.01,465.72 159.75,465.58 156.13,468.26 150.22,467.16 143.73,468.24 144.24,467.07 142.89,465.94 135.76,464.68 130.80,462.21 129.02,462.28 127.59,463.86 122.86,461.62 113.14,462.89 110.40,461.84 101.79,461.72 100.00,459.74 101.31,457.37 109.25,454.00 100.99,450.50 107.00,447.55 114.59,445.45 105.15,441.48 107.73,440.09 108.87,437.80 113.26,436.07 118.77,430.60 125.53,429.63 132.47,430.50 132.23,429.03 133.73,428.28 132.09,426.51 128.34,427.05 122.87,426.00 119.32,424.09 119.07,422.64 122.41,421.91 129.62,417.20 134.59,415.22 134.48,413.94 132.37,413.32 133.59,410.40 125.68,407.49 121.69,407.70 118.62,407.10 117.44,405.87 114.30,406.29 112.21,405.01 112.58,403.47 119.98,399.58 123.52,396.33 130.37,393.79 142.95,392.72 147.51,391.11 151.61,392.86 158.00,392.73 159.99,391.24 160.75,388.05 156.59,385.25 157.33,381.93 163.59,380.94 166.58,382.91 173.53,382.22 182.06,378.66 183.82,379.31 190.96,376.82 191.09,375.36 188.18,375.52 178.87,372.22 177.52,373.14 167.40,374.34 168.51,371.29 163.85,369.62 156.53,369.08 153.62,367.91 152.88,366.96 154.81,364.71 148.93,365.52 143.57,364.78 140.03,362.72 133.49,362.32 128.01,359.36 127.69,358.24 131.07,356.23 130.71,354.89 132.40,355.71 137.22,354.14 147.58,355.78 148.66,356.61 151.76,355.25 168.96,356.75 171.15,357.85 181.15,353.41 175.99,350.58 174.69,348.65 169.45,347.13 172.02,345.35 171.07,343.19 179.89,340.83 174.62,338.91 174.15,337.47 176.32,334.98 179.80,334.66 176.09,332.75 176.90,330.47 173.37,329.10 170.55,323.46 174.40,321.74 174.76,321.04 172.29,320.20 177.82,317.20 177.15,315.67 182.85,311.50 181.76,310.08 185.99,307.01 185.37,305.23" fill="#39d0ff" opacity="0.22" stroke="#2b6cb0" stroke-width="3"/>
</svg>