<svg xmlns="http://www.w3.org/2000/svg" width="1400" height="520" viewBox="0 0 1400 520">
<defs>
<linearGradient id="bg" x1="0" x2="0" y1="0" y2="1">
<stop offset="0%" stop-color="#0b1822"/>
<stop offset="100%" stop-color="#102636"/>
</linearGradient>
<filter id="shadow" x="-20%" y="-20%" width="140%" height="140%">
<feDropShadow dx="0" dy="10" stdDeviation="12" flood-color="#000000" flood-opacity="0.22"/>
</filter>
</defs>
<rect width="1400" height="520" rx="24" fill="url(#bg)"/>
<text x="60" y="60" fill="#eef7fb" font-size="30" font-family="Segoe UI" font-weight="700">Factor 2: Instantaneous Discharge</text>
<text x="60" y="92" fill="#9eb7c5" font-size="16" font-family="Segoe UI">Recent mean/min/max discharge summaries derived from the IV feed.</text>
<rect x="50" y="100" width="1330" height="370" rx="20" fill="#0f2130" stroke="#27495e"/>
<line x1="70" y1="120.0" x2="1360" y2="120.0" stroke="#244255"/>
<line x1="70" y1="202.5" x2="1360" y2="202.5" stroke="#244255"/>
<line x1="70" y1="285.0" x2="1360" y2="285.0" stroke="#244255"/>
<line x1="70" y1="367.5" x2="1360" y2="367.5" stroke="#244255"/>
<line x1="70" y1="450.0" x2="1360" y2="450.0" stroke="#244255"/>
<polygon points="70.00,120.00 254.29,153.48 438.57,198.91 622.86,261.09 807.14,313.70 991.43,361.52 1175.71,399.78 1360.00,430.87 1360.00,450.00 1175.71,430.87 991.43,399.78 807.14,361.52 622.86,313.70 438.57,265.87 254.29,203.70 70.00,153.48" fill="#43f0c7" opacity="0.18"/>
<polyline fill="none" stroke="#43f0c7" stroke-width="3" points="70.00,136.60 254.29,177.81 438.57,229.70 622.86,288.19 807.14,336.96 991.43,380.18 1175.71,417.62 1360.00,440.97"/>
<text x="70" y="492" fill="#c9d9e2" font-size="12" font-family="Segoe UI">2026-05-18</text>
<text x="1255" y="492" fill="#c9d9e2" font-size="12" font-family="Segoe UI">2026-05-25</text>
<text x="24" y="260.0" transform="rotate(-90 24 260.0)" fill="#c9d9e2" font-size="13" font-family="Segoe UI">Discharge (cfs)</text>
<text x="1170" y="60" fill="#43f0c7" font-size="13" font-family="Segoe UI">Mean with min/max band</text>
</svg>