<svg xmlns="http://www.w3.org/2000/svg" width="1100" height="480" viewBox="0 0 1100 480">
<defs></defs>
<rect width="1100" height="480" rx="24" fill="#ffffff"/>
<text x="50" y="56" fill="#142433" font-size="30" font-family="Segoe UI" font-weight="700">Factor 10: Rating Curves</text>
<text x="50" y="88" fill="#4e6678" font-size="16" font-family="Segoe UI">Available rating-curve file types for the target site.</text>
<rect x="60" y="100" width="1000" height="330" rx="20" fill="#ffffff" stroke="#c7d7e2"/>
<line x1="80" y1="120.0" x2="1040" y2="120.0" stroke="#dbe6ee"/>
<line x1="80" y1="190.0" x2="1040" y2="190.0" stroke="#dbe6ee"/>
<line x1="80" y1="260.0" x2="1040" y2="260.0" stroke="#dbe6ee"/>
<line x1="80" y1="330.0" x2="1040" y2="330.0" stroke="#dbe6ee"/>
<line x1="80" y1="400.0" x2="1040" y2="400.0" stroke="#dbe6ee"/>
<rect x="98.0" y="138.0" width="296.0" height="262.0" rx="8" fill="#dd6b20"/>
<text x="246.0" y="424" text-anchor="middle" fill="#4e6678" font-size="12" font-family="Segoe UI">base</text>
<text x="246.0" y="130.0" text-anchor="middle" fill="#142433" font-size="12" font-family="Segoe UI">1</text>
<rect x="418.0" y="138.0" width="296.0" height="262.0" rx="8" fill="#dd6b20"/>
<text x="566.0" y="424" text-anchor="middle" fill="#4e6678" font-size="12" font-family="Segoe UI">corr</text>
<text x="566.0" y="130.0" text-anchor="middle" fill="#142433" font-size="12" font-family="Segoe UI">1</text>
<rect x="738.0" y="138.0" width="296.0" height="262.0" rx="8" fill="#dd6b20"/>
<text x="886.0" y="424" text-anchor="middle" fill="#4e6678" font-size="12" font-family="Segoe UI">exsa</text>
<text x="886.0" y="130.0" text-anchor="middle" fill="#142433" font-size="12" font-family="Segoe UI">1</text>
</svg>