<svg xmlns="http://www.w3.org/2000/svg" width="1200" height="520" viewBox="0 0 1200 520">
<defs></defs>
<rect width="1200" height="520" rx="24" fill="#ffffff"/>
<text x="60" y="60" fill="#142433" font-size="30" font-family="Segoe UI" font-weight="700">Factor 8: CAMELS Climate</text>
<text x="60" y="92" fill="#4e6678" font-size="16" font-family="Segoe UI">Climatological basin descriptors used as context features.</text>
<rect x="50" y="120" width="1100" height="350" rx="20" fill="#ffffff" stroke="#c7d7e2"/>
<text x="70" y="162" fill="#4e6678" font-size="14" font-family="Segoe UI">Mean precip</text>
<rect x="330" y="149" width="760" height="18" rx="9" fill="#e8f0f5"/>
<rect x="330" y="149" width="730.0" height="18" rx="9" fill="#43f0c7"/>
<text x="1110" y="162" text-anchor="end" fill="#142433" font-size="13" font-family="Segoe UI">3.127</text>
<text x="70" y="210" fill="#4e6678" font-size="14" font-family="Segoe UI">Mean PET</text>
<rect x="330" y="197" width="760" height="18" rx="9" fill="#e8f0f5"/>
<rect x="330" y="197" width="460.3" height="18" rx="9" fill="#43f0c7"/>
<text x="1110" y="210" text-anchor="end" fill="#142433" font-size="13" font-family="Segoe UI">1.972</text>
<text x="70" y="258" fill="#4e6678" font-size="14" font-family="Segoe UI">Snow fraction</text>
<rect x="330" y="245" width="760" height="18" rx="9" fill="#e8f0f5"/>
<rect x="330" y="245" width="73.2" height="18" rx="9" fill="#43f0c7"/>
<text x="1110" y="258" text-anchor="end" fill="#142433" font-size="13" font-family="Segoe UI">0.313</text>
<text x="70" y="306" fill="#4e6678" font-size="14" font-family="Segoe UI">Aridity</text>
<rect x="330" y="293" width="760" height="18" rx="9" fill="#e8f0f5"/>
<rect x="330" y="293" width="147.2" height="18" rx="9" fill="#43f0c7"/>
<text x="1110" y="306" text-anchor="end" fill="#142433" font-size="13" font-family="Segoe UI">0.631</text>
</svg>