<svg xmlns="http://www.w3.org/2000/svg" width="1000" height="560" viewBox="0 0 1000 560">
<defs></defs>
<rect width="1000" height="560" rx="24" fill="#ffffff"/>
<text x="60" y="60" fill="#142433" font-size="30" font-family="Segoe UI" font-weight="700">Stage-Discharge Relationship</text>
<text x="60" y="92" fill="#4e6678" font-size="16" font-family="Segoe UI">Observed paired water level and discharge values for the target gauge.</text>
<rect x="66" y="76" width="908" height="438" rx="20" fill="#ffffff" stroke="#c7d7e2"/>
<line x1="90" y1="490" x2="950" y2="490" stroke="#8ba0af"/>
<line x1="90" y1="100" x2="90" y2="490" stroke="#8ba0af"/>
<circle cx="950.00" cy="100.00" r="3.4" fill="#dd6b20" opacity="0.78"/>
<circle cx="941.22" cy="102.83" r="3.4" fill="#dd6b20" opacity="0.78"/>
<circle cx="941.22" cy="102.83" r="3.4" fill="#dd6b20" opacity="0.78"/>
<circle cx="932.45" cy="108.48" r="3.4" fill="#dd6b20" opacity="0.78"/>
<circle cx="932.45" cy="108.48" r="3.4" fill="#dd6b20" opacity="0.78"/>
<circle cx="941.22" cy="102.83" r="3.4" fill="#dd6b20" opacity="0.78"/>
<circle cx="941.22" cy="102.83" r="3.4" fill="#dd6b20" opacity="0.78"/>
<circle cx="941.22" cy="102.83" r="3.4" fill="#dd6b20" opacity="0.78"/>
<circle cx="941.22" cy="102.83" r="3.4" fill="#dd6b20" opacity="0.78"/>
<circle cx="932.45" cy="108.48" r="3.4" fill="#dd6b20" opacity="0.78"/>
<circle cx="923.67" cy="111.30" r="3.4" fill="#dd6b20" opacity="0.78"/>
<circle cx="932.45" cy="108.48" r="3.4" fill="#dd6b20" opacity="0.78"/>
<circle cx="932.45" cy="108.48" r="3.4" fill="#dd6b20" opacity="0.78"/>
<circle cx="923.67" cy="111.30" r="3.4" fill="#dd6b20" opacity="0.78"/>
<circle cx="923.67" cy="111.30" r="3.4" fill="#dd6b20" opacity="0.78"/>
<circle cx="914.90" cy="116.96" r="3.4" fill="#dd6b20" opacity="0.78"/>
<circle cx="923.67" cy="111.30" r="3.4" fill="#dd6b20" opacity="0.78"/>
<circle cx="923.67" cy="111.30" r="3.4" fill="#dd6b20" opacity="0.78"/>
<circle cx="914.90" cy="116.96" r="3.4" fill="#dd6b20" opacity="0.78"/>
<circle cx="923.67" cy="111.30" r="3.4" fill="#dd6b20" opacity="0.78"/>
<circle cx="914.90" cy="116.96" r="3.4" fill="#dd6b20" opacity="0.78"/>
<circle cx="914.90" cy="116.96" r="3.4" fill="#dd6b20" opacity="0.78"/>
<circle cx="923.67" cy="111.30" r="3.4" fill="#dd6b20" opacity="0.78"/>
<circle cx="914.90" cy="116.96" r="3.4" fill="#dd6b20" opacity="0.78"/>
<circle cx="923.67" cy="111.30" r="3.4" fill="#dd6b20" opacity="0.78"/>
<circle cx="906.12" cy="122.61" r="3.4" fill="#dd6b20" opacity="0.78"/>
<circle cx="914.90" cy="116.96" r="3.4" fill="#dd6b20" opacity="0.78"/>
<circle cx="914.90" cy="116.96" r="3.4" fill="#dd6b20" opacity="0.78"/>
<circle cx="906.12" cy="122.61" r="3.4" fill="#dd6b20" opacity="0.78"/>
<circle cx="906.12" cy="122.61" r="3.4" fill="#dd6b20" opacity="0.78"/>
<circle cx="897.35" cy="125.43" r="3.4" fill="#dd6b20" opacity="0.78"/>
<circle cx="888.57" cy="131.09" r="3.4" fill="#dd6b20" opacity="0.78"/>
<circle cx="897.35" cy="125.43" r="3.4" fill="#dd6b20" opacity="0.78"/>
<circle cx="906.12" cy="122.61" r="3.4" fill="#dd6b20" opacity="0.78"/>
<circle cx="897.35" cy="125.43" r="3.4" fill="#dd6b20" opacity="0.78"/>
<circle cx="897.35" cy="125.43" r="3.4" fill="#dd6b20" opacity="0.78"/>
<circle cx="897.35" cy="125.43" r="3.4" fill="#dd6b20" opacity="0.78"/>
<circle cx="888.57" cy="131.09" r="3.4" fill="#dd6b20" opacity="0.78"/>
<circle cx="888.57" cy="131.09" r="3.4" fill="#dd6b20" opacity="0.78"/>
<circle cx="888.57" cy="131.09" r="3.4" fill="#dd6b20" opacity="0.78"/>
<circle cx="897.35" cy="125.43" r="3.4" fill="#dd6b20" opacity="0.78"/>
<circle cx="888.57" cy="131.09" r="3.4" fill="#dd6b20" opacity="0.78"/>
<circle cx="879.80" cy="133.91" r="3.4" fill="#dd6b20" opacity="0.78"/>
<circle cx="888.57" cy="131.09" r="3.4" fill="#dd6b20" opacity="0.78"/>
<circle cx="879.80" cy="133.91" r="3.4" fill="#dd6b20" opacity="0.78"/>
<circle cx="879.80" cy="133.91" r="3.4" fill="#dd6b20" opacity="0.78"/>
<circle cx="879.80" cy="133.91" r="3.4" fill="#dd6b20" opacity="0.78"/>
<circle cx="879.80" cy="133.91" r="3.4" fill="#dd6b20" opacity="0.78"/>
<circle cx="879.80" cy="133.91" r="3.4" fill="#dd6b20" opacity="0.78"/>
<circle cx="871.02" cy="139.57" r="3.4" fill="#dd6b20" opacity="0.78"/>
<circle cx="871.02" cy="139.57" r="3.4" fill="#dd6b20" opacity="0.78"/>
<circle cx="871.02" cy="139.57" r="3.4" fill="#dd6b20" opacity="0.78"/>
<circle cx="871.02" cy="139.57" r="3.4" fill="#dd6b20" opacity="0.78"/>
<circle cx="871.02" cy="139.57" r="3.4" fill="#dd6b20" opacity="0.78"/>
<circle cx="871.02" cy="139.57" r="3.4" fill="#dd6b20" opacity="0.78"/>
<circle cx="862.24" cy="142.39" r="3.4" fill="#dd6b20" opacity="0.78"/>
<circle cx="871.02" cy="139.57" r="3.4" fill="#dd6b20" opacity="0.78"/>
<circle cx="862.24" cy="142.39" r="3.4" fill="#dd6b20" opacity="0.78"/>
<circle cx="871.02" cy="139.57" r="3.4" fill="#dd6b20" opacity="0.78"/>
<circle cx="862.24" cy="142.39" r="3.4" fill="#dd6b20" opacity="0.78"/>
<circle cx="862.24" cy="142.39" r="3.4" fill="#dd6b20" opacity="0.78"/>
<circle cx="853.47" cy="148.04" r="3.4" fill="#dd6b20" opacity="0.78"/>
<circle cx="853.47" cy="148.04" r="3.4" fill="#dd6b20" opacity="0.78"/>
<circle cx="853.47" cy="148.04" r="3.4" fill="#dd6b20" opacity="0.78"/>
<circle cx="862.24" cy="142.39" r="3.4" fill="#dd6b20" opacity="0.78"/>
<circle cx="853.47" cy="148.04" r="3.4" fill="#dd6b20" opacity="0.78"/>
<circle cx="853.47" cy="148.04" r="3.4" fill="#dd6b20" opacity="0.78"/>
<circle cx="844.69" cy="150.87" r="3.4" fill="#dd6b20" opacity="0.78"/>
<circle cx="844.69" cy="150.87" r="3.4" fill="#dd6b20" opacity="0.78"/>
<circle cx="853.47" cy="148.04" r="3.4" fill="#dd6b20" opacity="0.78"/>
<circle cx="835.92" cy="156.52" r="3.4" fill="#dd6b20" opacity="0.78"/>
<circle cx="844.69" cy="150.87" r="3.4" fill="#dd6b20" opacity="0.78"/>
<circle cx="844.69" cy="150.87" r="3.4" fill="#dd6b20" opacity="0.78"/>
<circle cx="835.92" cy="156.52" r="3.4" fill="#dd6b20" opacity="0.78"/>
<circle cx="844.69" cy="150.87" r="3.4" fill="#dd6b20" opacity="0.78"/>
<circle cx="835.92" cy="156.52" r="3.4" fill="#dd6b20" opacity="0.78"/>
<circle cx="827.14" cy="159.35" r="3.4" fill="#dd6b20" opacity="0.78"/>
<circle cx="835.92" cy="156.52" r="3.4" fill="#dd6b20" opacity="0.78"/>
<circle cx="835.92" cy="156.52" r="3.4" fill="#dd6b20" opacity="0.78"/>
<circle cx="827.14" cy="159.35" r="3.4" fill="#dd6b20" opacity="0.78"/>
<circle cx="835.92" cy="156.52" r="3.4" fill="#dd6b20" opacity="0.78"/>
<circle cx="835.92" cy="156.52" r="3.4" fill="#dd6b20" opacity="0.78"/>
<circle cx="835.92" cy="156.52" r="3.4" fill="#dd6b20" opacity="0.78"/>
<circle cx="835.92" cy="156.52" r="3.4" fill="#dd6b20" opacity="0.78"/>
<circle cx="835.92" cy="156.52" r="3.4" fill="#dd6b20" opacity="0.78"/>
<circle cx="835.92" cy="156.52" r="3.4" fill="#dd6b20" opacity="0.78"/>
<circle cx="827.14" cy="159.35" r="3.4" fill="#dd6b20" opacity="0.78"/>
<circle cx="818.37" cy="165.00" r="3.4" fill="#dd6b20" opacity="0.78"/>
<circle cx="835.92" cy="156.52" r="3.4" fill="#dd6b20" opacity="0.78"/>
<circle cx="827.14" cy="159.35" r="3.4" fill="#dd6b20" opacity="0.78"/>
<circle cx="827.14" cy="159.35" r="3.4" fill="#dd6b20" opacity="0.78"/>
<circle cx="827.14" cy="159.35" r="3.4" fill="#dd6b20" opacity="0.78"/>
<circle cx="827.14" cy="159.35" r="3.4" fill="#dd6b20" opacity="0.78"/>
<circle cx="818.37" cy="165.00" r="3.4" fill="#dd6b20" opacity="0.78"/>
<circle cx="827.14" cy="159.35" r="3.4" fill="#dd6b20" opacity="0.78"/>
<circle cx="818.37" cy="165.00" r="3.4" fill="#dd6b20" opacity="0.78"/>
<circle cx="827.14" cy="159.35" r="3.4" fill="#dd6b20" opacity="0.78"/>
<circle cx="818.37" cy="165.00" r="3.4" fill="#dd6b20" opacity="0.78"/>
<circle cx="818.37" cy="165.00" r="3.4" fill="#dd6b20" opacity="0.78"/>
<circle cx="818.37" cy="165.00" r="3.4" fill="#dd6b20" opacity="0.78"/>
<circle cx="809.59" cy="167.83" r="3.4" fill="#dd6b20" opacity="0.78"/>
<circle cx="809.59" cy="167.83" r="3.4" fill="#dd6b20" opacity="0.78"/>
<circle cx="809.59" cy="167.83" r="3.4" fill="#dd6b20" opacity="0.78"/>
<circle cx="809.59" cy="167.83" r="3.4" fill="#dd6b20" opacity="0.78"/>
<circle cx="800.82" cy="173.48" r="3.4" fill="#dd6b20" opacity="0.78"/>
<circle cx="809.59" cy="167.83" r="3.4" fill="#dd6b20" opacity="0.78"/>
<circle cx="800.82" cy="173.48" r="3.4" fill="#dd6b20" opacity="0.78"/>
<circle cx="800.82" cy="173.48" r="3.4" fill="#dd6b20" opacity="0.78"/>
<circle cx="800.82" cy="173.48" r="3.4" fill="#dd6b20" opacity="0.78"/>
<circle cx="792.04" cy="176.30" r="3.4" fill="#dd6b20" opacity="0.78"/>
<circle cx="792.04" cy="176.30" r="3.4" fill="#dd6b20" opacity="0.78"/>
<circle cx="800.82" cy="173.48" r="3.4" fill="#dd6b20" opacity="0.78"/>
<circle cx="800.82" cy="173.48" r="3.4" fill="#dd6b20" opacity="0.78"/>
<circle cx="792.04" cy="176.30" r="3.4" fill="#dd6b20" opacity="0.78"/>
<circle cx="783.27" cy="181.96" r="3.4" fill="#dd6b20" opacity="0.78"/>
<circle cx="792.04" cy="176.30" r="3.4" fill="#dd6b20" opacity="0.78"/>
<circle cx="792.04" cy="176.30" r="3.4" fill="#dd6b20" opacity="0.78"/>
<circle cx="774.49" cy="184.78" r="3.4" fill="#dd6b20" opacity="0.78"/>
<circle cx="783.27" cy="181.96" r="3.4" fill="#dd6b20" opacity="0.78"/>
<circle cx="783.27" cy="181.96" r="3.4" fill="#dd6b20" opacity="0.78"/>
<circle cx="783.27" cy="181.96" r="3.4" fill="#dd6b20" opacity="0.78"/>
<circle cx="783.27" cy="181.96" r="3.4" fill="#dd6b20" opacity="0.78"/>
<circle cx="774.49" cy="184.78" r="3.4" fill="#dd6b20" opacity="0.78"/>
<circle cx="774.49" cy="184.78" r="3.4" fill="#dd6b20" opacity="0.78"/>
<circle cx="783.27" cy="181.96" r="3.4" fill="#dd6b20" opacity="0.78"/>
<circle cx="774.49" cy="184.78" r="3.4" fill="#dd6b20" opacity="0.78"/>
<circle cx="774.49" cy="184.78" r="3.4" fill="#dd6b20" opacity="0.78"/>
<circle cx="774.49" cy="184.78" r="3.4" fill="#dd6b20" opacity="0.78"/>
<circle cx="765.71" cy="190.43" r="3.4" fill="#dd6b20" opacity="0.78"/>
<circle cx="765.71" cy="190.43" r="3.4" fill="#dd6b20" opacity="0.78"/>
<circle cx="774.49" cy="184.78" r="3.4" fill="#dd6b20" opacity="0.78"/>
<circle cx="765.71" cy="190.43" r="3.4" fill="#dd6b20" opacity="0.78"/>
<circle cx="765.71" cy="190.43" r="3.4" fill="#dd6b20" opacity="0.78"/>
<circle cx="765.71" cy="190.43" r="3.4" fill="#dd6b20" opacity="0.78"/>
<circle cx="765.71" cy="190.43" r="3.4" fill="#dd6b20" opacity="0.78"/>
<circle cx="765.71" cy="190.43" r="3.4" fill="#dd6b20" opacity="0.78"/>
<circle cx="756.94" cy="193.26" r="3.4" fill="#dd6b20" opacity="0.78"/>
<circle cx="756.94" cy="193.26" r="3.4" fill="#dd6b20" opacity="0.78"/>
<circle cx="756.94" cy="193.26" r="3.4" fill="#dd6b20" opacity="0.78"/>
<circle cx="756.94" cy="193.26" r="3.4" fill="#dd6b20" opacity="0.78"/>
<circle cx="756.94" cy="193.26" r="3.4" fill="#dd6b20" opacity="0.78"/>
<circle cx="756.94" cy="193.26" r="3.4" fill="#dd6b20" opacity="0.78"/>
<circle cx="756.94" cy="193.26" r="3.4" fill="#dd6b20" opacity="0.78"/>
<circle cx="756.94" cy="193.26" r="3.4" fill="#dd6b20" opacity="0.78"/>
<circle cx="756.94" cy="193.26" r="3.4" fill="#dd6b20" opacity="0.78"/>
<circle cx="756.94" cy="193.26" r="3.4" fill="#dd6b20" opacity="0.78"/>
<circle cx="748.16" cy="198.91" r="3.4" fill="#dd6b20" opacity="0.78"/>
<circle cx="756.94" cy="193.26" r="3.4" fill="#dd6b20" opacity="0.78"/>
<circle cx="756.94" cy="193.26" r="3.4" fill="#dd6b20" opacity="0.78"/>
<circle cx="756.94" cy="193.26" r="3.4" fill="#dd6b20" opacity="0.78"/>
<circle cx="748.16" cy="198.91" r="3.4" fill="#dd6b20" opacity="0.78"/>
<circle cx="748.16" cy="198.91" r="3.4" fill="#dd6b20" opacity="0.78"/>
<circle cx="748.16" cy="198.91" r="3.4" fill="#dd6b20" opacity="0.78"/>
<circle cx="748.16" cy="198.91" r="3.4" fill="#dd6b20" opacity="0.78"/>
<circle cx="748.16" cy="198.91" r="3.4" fill="#dd6b20" opacity="0.78"/>
<circle cx="730.61" cy="207.39" r="3.4" fill="#dd6b20" opacity="0.78"/>
<circle cx="739.39" cy="201.74" r="3.4" fill="#dd6b20" opacity="0.78"/>
<circle cx="739.39" cy="201.74" r="3.4" fill="#dd6b20" opacity="0.78"/>
<circle cx="739.39" cy="201.74" r="3.4" fill="#dd6b20" opacity="0.78"/>
<circle cx="730.61" cy="207.39" r="3.4" fill="#dd6b20" opacity="0.78"/>
<circle cx="730.61" cy="207.39" r="3.4" fill="#dd6b20" opacity="0.78"/>
<circle cx="730.61" cy="207.39" r="3.4" fill="#dd6b20" opacity="0.78"/>
<circle cx="739.39" cy="201.74" r="3.4" fill="#dd6b20" opacity="0.78"/>
<circle cx="739.39" cy="201.74" r="3.4" fill="#dd6b20" opacity="0.78"/>
<circle cx="721.84" cy="210.22" r="3.4" fill="#dd6b20" opacity="0.78"/>
<circle cx="721.84" cy="210.22" r="3.4" fill="#dd6b20" opacity="0.78"/>
<circle cx="721.84" cy="210.22" r="3.4" fill="#dd6b20" opacity="0.78"/>
<circle cx="721.84" cy="210.22" r="3.4" fill="#dd6b20" opacity="0.78"/>
<circle cx="721.84" cy="210.22" r="3.4" fill="#dd6b20" opacity="0.78"/>
<circle cx="721.84" cy="210.22" r="3.4" fill="#dd6b20" opacity="0.78"/>
<circle cx="713.06" cy="215.87" r="3.4" fill="#dd6b20" opacity="0.78"/>
<circle cx="721.84" cy="210.22" r="3.4" fill="#dd6b20" opacity="0.78"/>
<circle cx="721.84" cy="210.22" r="3.4" fill="#dd6b20" opacity="0.78"/>
<circle cx="713.06" cy="215.87" r="3.4" fill="#dd6b20" opacity="0.78"/>
<circle cx="713.06" cy="215.87" r="3.4" fill="#dd6b20" opacity="0.78"/>
<circle cx="713.06" cy="215.87" r="3.4" fill="#dd6b20" opacity="0.78"/>
<circle cx="713.06" cy="215.87" r="3.4" fill="#dd6b20" opacity="0.78"/>
<circle cx="713.06" cy="215.87" r="3.4" fill="#dd6b20" opacity="0.78"/>
<circle cx="704.29" cy="218.70" r="3.4" fill="#dd6b20" opacity="0.78"/>
<circle cx="713.06" cy="215.87" r="3.4" fill="#dd6b20" opacity="0.78"/>
<circle cx="713.06" cy="215.87" r="3.4" fill="#dd6b20" opacity="0.78"/>
<circle cx="713.06" cy="215.87" r="3.4" fill="#dd6b20" opacity="0.78"/>
<circle cx="704.29" cy="218.70" r="3.4" fill="#dd6b20" opacity="0.78"/>
<circle cx="704.29" cy="218.70" r="3.4" fill="#dd6b20" opacity="0.78"/>
<circle cx="704.29" cy="218.70" r="3.4" fill="#dd6b20" opacity="0.78"/>
<circle cx="704.29" cy="218.70" r="3.4" fill="#dd6b20" opacity="0.78"/>
<circle cx="695.51" cy="221.52" r="3.4" fill="#dd6b20" opacity="0.78"/>
<circle cx="695.51" cy="221.52" r="3.4" fill="#dd6b20" opacity="0.78"/>
<circle cx="704.29" cy="218.70" r="3.4" fill="#dd6b20" opacity="0.78"/>
<circle cx="695.51" cy="221.52" r="3.4" fill="#dd6b20" opacity="0.78"/>
<circle cx="695.51" cy="221.52" r="3.4" fill="#dd6b20" opacity="0.78"/>
<circle cx="704.29" cy="218.70" r="3.4" fill="#dd6b20" opacity="0.78"/>
<circle cx="704.29" cy="218.70" r="3.4" fill="#dd6b20" opacity="0.78"/>
<circle cx="695.51" cy="221.52" r="3.4" fill="#dd6b20" opacity="0.78"/>
<circle cx="695.51" cy="221.52" r="3.4" fill="#dd6b20" opacity="0.78"/>
<circle cx="686.73" cy="227.17" r="3.4" fill="#dd6b20" opacity="0.78"/>
<circle cx="695.51" cy="221.52" r="3.4" fill="#dd6b20" opacity="0.78"/>
<circle cx="695.51" cy="221.52" r="3.4" fill="#dd6b20" opacity="0.78"/>
<circle cx="695.51" cy="221.52" r="3.4" fill="#dd6b20" opacity="0.78"/>
<circle cx="695.51" cy="221.52" r="3.4" fill="#dd6b20" opacity="0.78"/>
<circle cx="695.51" cy="221.52" r="3.4" fill="#dd6b20" opacity="0.78"/>
<circle cx="677.96" cy="230.00" r="3.4" fill="#dd6b20" opacity="0.78"/>
<circle cx="686.73" cy="227.17" r="3.4" fill="#dd6b20" opacity="0.78"/>
<circle cx="677.96" cy="230.00" r="3.4" fill="#dd6b20" opacity="0.78"/>
<circle cx="686.73" cy="227.17" r="3.4" fill="#dd6b20" opacity="0.78"/>
<circle cx="677.96" cy="230.00" r="3.4" fill="#dd6b20" opacity="0.78"/>
<circle cx="677.96" cy="230.00" r="3.4" fill="#dd6b20" opacity="0.78"/>
<circle cx="669.18" cy="235.65" r="3.4" fill="#dd6b20" opacity="0.78"/>
<circle cx="669.18" cy="235.65" r="3.4" fill="#dd6b20" opacity="0.78"/>
<circle cx="677.96" cy="230.00" r="3.4" fill="#dd6b20" opacity="0.78"/>
<circle cx="669.18" cy="235.65" r="3.4" fill="#dd6b20" opacity="0.78"/>
<circle cx="669.18" cy="235.65" r="3.4" fill="#dd6b20" opacity="0.78"/>
<circle cx="669.18" cy="235.65" r="3.4" fill="#dd6b20" opacity="0.78"/>
<circle cx="660.41" cy="238.48" r="3.4" fill="#dd6b20" opacity="0.78"/>
<circle cx="660.41" cy="238.48" r="3.4" fill="#dd6b20" opacity="0.78"/>
<circle cx="651.63" cy="244.13" r="3.4" fill="#dd6b20" opacity="0.78"/>
<circle cx="651.63" cy="244.13" r="3.4" fill="#dd6b20" opacity="0.78"/>
<circle cx="642.86" cy="246.96" r="3.4" fill="#dd6b20" opacity="0.78"/>
<circle cx="642.86" cy="246.96" r="3.4" fill="#dd6b20" opacity="0.78"/>
<circle cx="651.63" cy="244.13" r="3.4" fill="#dd6b20" opacity="0.78"/>
<circle cx="634.08" cy="252.61" r="3.4" fill="#dd6b20" opacity="0.78"/>
<circle cx="634.08" cy="252.61" r="3.4" fill="#dd6b20" opacity="0.78"/>
<circle cx="634.08" cy="252.61" r="3.4" fill="#dd6b20" opacity="0.78"/>
<circle cx="625.31" cy="255.43" r="3.4" fill="#dd6b20" opacity="0.78"/>
<circle cx="625.31" cy="255.43" r="3.4" fill="#dd6b20" opacity="0.78"/>
<circle cx="625.31" cy="255.43" r="3.4" fill="#dd6b20" opacity="0.78"/>
<circle cx="616.53" cy="261.09" r="3.4" fill="#dd6b20" opacity="0.78"/>
<circle cx="607.76" cy="263.91" r="3.4" fill="#dd6b20" opacity="0.78"/>
<circle cx="607.76" cy="263.91" r="3.4" fill="#dd6b20" opacity="0.78"/>
<circle cx="607.76" cy="263.91" r="3.4" fill="#dd6b20" opacity="0.78"/>
<circle cx="607.76" cy="263.91" r="3.4" fill="#dd6b20" opacity="0.78"/>
<circle cx="607.76" cy="263.91" r="3.4" fill="#dd6b20" opacity="0.78"/>
<circle cx="607.76" cy="263.91" r="3.4" fill="#dd6b20" opacity="0.78"/>
<circle cx="607.76" cy="263.91" r="3.4" fill="#dd6b20" opacity="0.78"/>
<circle cx="607.76" cy="263.91" r="3.4" fill="#dd6b20" opacity="0.78"/>
<circle cx="598.98" cy="266.74" r="3.4" fill="#dd6b20" opacity="0.78"/>
<circle cx="598.98" cy="266.74" r="3.4" fill="#dd6b20" opacity="0.78"/>
<circle cx="598.98" cy="266.74" r="3.4" fill="#dd6b20" opacity="0.78"/>
<circle cx="598.98" cy="266.74" r="3.4" fill="#dd6b20" opacity="0.78"/>
<circle cx="598.98" cy="266.74" r="3.4" fill="#dd6b20" opacity="0.78"/>
<circle cx="598.98" cy="266.74" r="3.4" fill="#dd6b20" opacity="0.78"/>
<circle cx="598.98" cy="266.74" r="3.4" fill="#dd6b20" opacity="0.78"/>
<circle cx="590.20" cy="272.39" r="3.4" fill="#dd6b20" opacity="0.78"/>
<circle cx="598.98" cy="266.74" r="3.4" fill="#dd6b20" opacity="0.78"/>
<circle cx="598.98" cy="266.74" r="3.4" fill="#dd6b20" opacity="0.78"/>
<circle cx="598.98" cy="266.74" r="3.4" fill="#dd6b20" opacity="0.78"/>
<circle cx="590.20" cy="272.39" r="3.4" fill="#dd6b20" opacity="0.78"/>
<circle cx="598.98" cy="266.74" r="3.4" fill="#dd6b20" opacity="0.78"/>
<circle cx="590.20" cy="272.39" r="3.4" fill="#dd6b20" opacity="0.78"/>
<circle cx="598.98" cy="266.74" r="3.4" fill="#dd6b20" opacity="0.78"/>
<circle cx="590.20" cy="272.39" r="3.4" fill="#dd6b20" opacity="0.78"/>
<circle cx="590.20" cy="272.39" r="3.4" fill="#dd6b20" opacity="0.78"/>
<circle cx="581.43" cy="275.22" r="3.4" fill="#dd6b20" opacity="0.78"/>
<circle cx="581.43" cy="275.22" r="3.4" fill="#dd6b20" opacity="0.78"/>
<circle cx="581.43" cy="275.22" r="3.4" fill="#dd6b20" opacity="0.78"/>
<circle cx="581.43" cy="275.22" r="3.4" fill="#dd6b20" opacity="0.78"/>
<circle cx="572.65" cy="280.87" r="3.4" fill="#dd6b20" opacity="0.78"/>
<circle cx="572.65" cy="280.87" r="3.4" fill="#dd6b20" opacity="0.78"/>
<circle cx="572.65" cy="280.87" r="3.4" fill="#dd6b20" opacity="0.78"/>
<circle cx="572.65" cy="280.87" r="3.4" fill="#dd6b20" opacity="0.78"/>
<circle cx="572.65" cy="280.87" r="3.4" fill="#dd6b20" opacity="0.78"/>
<circle cx="563.88" cy="283.70" r="3.4" fill="#dd6b20" opacity="0.78"/>
<circle cx="555.10" cy="289.35" r="3.4" fill="#dd6b20" opacity="0.78"/>
<circle cx="563.88" cy="283.70" r="3.4" fill="#dd6b20" opacity="0.78"/>
<circle cx="555.10" cy="289.35" r="3.4" fill="#dd6b20" opacity="0.78"/>
<circle cx="563.88" cy="283.70" r="3.4" fill="#dd6b20" opacity="0.78"/>
<circle cx="555.10" cy="289.35" r="3.4" fill="#dd6b20" opacity="0.78"/>
<circle cx="555.10" cy="289.35" r="3.4" fill="#dd6b20" opacity="0.78"/>
<circle cx="555.10" cy="289.35" r="3.4" fill="#dd6b20" opacity="0.78"/>
<circle cx="555.10" cy="289.35" r="3.4" fill="#dd6b20" opacity="0.78"/>
<circle cx="555.10" cy="289.35" r="3.4" fill="#dd6b20" opacity="0.78"/>
<circle cx="555.10" cy="289.35" r="3.4" fill="#dd6b20" opacity="0.78"/>
<circle cx="563.88" cy="283.70" r="3.4" fill="#dd6b20" opacity="0.78"/>
<circle cx="555.10" cy="289.35" r="3.4" fill="#dd6b20" opacity="0.78"/>
<circle cx="555.10" cy="289.35" r="3.4" fill="#dd6b20" opacity="0.78"/>
<circle cx="555.10" cy="289.35" r="3.4" fill="#dd6b20" opacity="0.78"/>
<circle cx="555.10" cy="289.35" r="3.4" fill="#dd6b20" opacity="0.78"/>
<circle cx="563.88" cy="283.70" r="3.4" fill="#dd6b20" opacity="0.78"/>
<circle cx="555.10" cy="289.35" r="3.4" fill="#dd6b20" opacity="0.78"/>
<circle cx="555.10" cy="289.35" r="3.4" fill="#dd6b20" opacity="0.78"/>
<circle cx="555.10" cy="289.35" r="3.4" fill="#dd6b20" opacity="0.78"/>
<circle cx="546.33" cy="292.17" r="3.4" fill="#dd6b20" opacity="0.78"/>
<circle cx="555.10" cy="289.35" r="3.4" fill="#dd6b20" opacity="0.78"/>
<circle cx="546.33" cy="292.17" r="3.4" fill="#dd6b20" opacity="0.78"/>
<circle cx="546.33" cy="292.17" r="3.4" fill="#dd6b20" opacity="0.78"/>
<circle cx="537.55" cy="295.00" r="3.4" fill="#dd6b20" opacity="0.78"/>
<circle cx="546.33" cy="292.17" r="3.4" fill="#dd6b20" opacity="0.78"/>
<circle cx="546.33" cy="292.17" r="3.4" fill="#dd6b20" opacity="0.78"/>
<circle cx="537.55" cy="295.00" r="3.4" fill="#dd6b20" opacity="0.78"/>
<circle cx="537.55" cy="295.00" r="3.4" fill="#dd6b20" opacity="0.78"/>
<circle cx="546.33" cy="292.17" r="3.4" fill="#dd6b20" opacity="0.78"/>
<circle cx="546.33" cy="292.17" r="3.4" fill="#dd6b20" opacity="0.78"/>
<circle cx="537.55" cy="295.00" r="3.4" fill="#dd6b20" opacity="0.78"/>
<circle cx="537.55" cy="295.00" r="3.4" fill="#dd6b20" opacity="0.78"/>
<circle cx="528.78" cy="300.65" r="3.4" fill="#dd6b20" opacity="0.78"/>
<circle cx="537.55" cy="295.00" r="3.4" fill="#dd6b20" opacity="0.78"/>
<circle cx="528.78" cy="300.65" r="3.4" fill="#dd6b20" opacity="0.78"/>
<circle cx="528.78" cy="300.65" r="3.4" fill="#dd6b20" opacity="0.78"/>
<circle cx="528.78" cy="300.65" r="3.4" fill="#dd6b20" opacity="0.78"/>
<circle cx="520.00" cy="303.48" r="3.4" fill="#dd6b20" opacity="0.78"/>
<circle cx="520.00" cy="303.48" r="3.4" fill="#dd6b20" opacity="0.78"/>
<circle cx="528.78" cy="300.65" r="3.4" fill="#dd6b20" opacity="0.78"/>
<circle cx="520.00" cy="303.48" r="3.4" fill="#dd6b20" opacity="0.78"/>
<circle cx="520.00" cy="303.48" r="3.4" fill="#dd6b20" opacity="0.78"/>
<circle cx="520.00" cy="303.48" r="3.4" fill="#dd6b20" opacity="0.78"/>
<circle cx="520.00" cy="303.48" r="3.4" fill="#dd6b20" opacity="0.78"/>
<circle cx="520.00" cy="303.48" r="3.4" fill="#dd6b20" opacity="0.78"/>
<circle cx="520.00" cy="303.48" r="3.4" fill="#dd6b20" opacity="0.78"/>
<circle cx="511.22" cy="309.13" r="3.4" fill="#dd6b20" opacity="0.78"/>
<circle cx="511.22" cy="309.13" r="3.4" fill="#dd6b20" opacity="0.78"/>
<circle cx="511.22" cy="309.13" r="3.4" fill="#dd6b20" opacity="0.78"/>
<circle cx="511.22" cy="309.13" r="3.4" fill="#dd6b20" opacity="0.78"/>
<circle cx="502.45" cy="311.96" r="3.4" fill="#dd6b20" opacity="0.78"/>
<circle cx="493.67" cy="314.78" r="3.4" fill="#dd6b20" opacity="0.78"/>
<circle cx="502.45" cy="311.96" r="3.4" fill="#dd6b20" opacity="0.78"/>
<circle cx="493.67" cy="314.78" r="3.4" fill="#dd6b20" opacity="0.78"/>
<circle cx="493.67" cy="314.78" r="3.4" fill="#dd6b20" opacity="0.78"/>
<circle cx="502.45" cy="311.96" r="3.4" fill="#dd6b20" opacity="0.78"/>
<circle cx="493.67" cy="314.78" r="3.4" fill="#dd6b20" opacity="0.78"/>
<circle cx="493.67" cy="314.78" r="3.4" fill="#dd6b20" opacity="0.78"/>
<circle cx="484.90" cy="320.43" r="3.4" fill="#dd6b20" opacity="0.78"/>
<circle cx="484.90" cy="320.43" r="3.4" fill="#dd6b20" opacity="0.78"/>
<circle cx="484.90" cy="320.43" r="3.4" fill="#dd6b20" opacity="0.78"/>
<circle cx="484.90" cy="320.43" r="3.4" fill="#dd6b20" opacity="0.78"/>
<circle cx="484.90" cy="320.43" r="3.4" fill="#dd6b20" opacity="0.78"/>
<circle cx="484.90" cy="320.43" r="3.4" fill="#dd6b20" opacity="0.78"/>
<circle cx="476.12" cy="323.26" r="3.4" fill="#dd6b20" opacity="0.78"/>
<circle cx="484.90" cy="320.43" r="3.4" fill="#dd6b20" opacity="0.78"/>
<circle cx="467.35" cy="328.91" r="3.4" fill="#dd6b20" opacity="0.78"/>
<circle cx="467.35" cy="328.91" r="3.4" fill="#dd6b20" opacity="0.78"/>
<circle cx="476.12" cy="323.26" r="3.4" fill="#dd6b20" opacity="0.78"/>
<circle cx="476.12" cy="323.26" r="3.4" fill="#dd6b20" opacity="0.78"/>
<circle cx="476.12" cy="323.26" r="3.4" fill="#dd6b20" opacity="0.78"/>
<circle cx="476.12" cy="323.26" r="3.4" fill="#dd6b20" opacity="0.78"/>
<circle cx="476.12" cy="323.26" r="3.4" fill="#dd6b20" opacity="0.78"/>
<circle cx="476.12" cy="323.26" r="3.4" fill="#dd6b20" opacity="0.78"/>
<circle cx="467.35" cy="328.91" r="3.4" fill="#dd6b20" opacity="0.78"/>
<circle cx="467.35" cy="328.91" r="3.4" fill="#dd6b20" opacity="0.78"/>
<circle cx="467.35" cy="328.91" r="3.4" fill="#dd6b20" opacity="0.78"/>
<circle cx="467.35" cy="328.91" r="3.4" fill="#dd6b20" opacity="0.78"/>
<circle cx="467.35" cy="328.91" r="3.4" fill="#dd6b20" opacity="0.78"/>
<circle cx="467.35" cy="328.91" r="3.4" fill="#dd6b20" opacity="0.78"/>
<circle cx="467.35" cy="328.91" r="3.4" fill="#dd6b20" opacity="0.78"/>
<circle cx="467.35" cy="328.91" r="3.4" fill="#dd6b20" opacity="0.78"/>
<circle cx="467.35" cy="328.91" r="3.4" fill="#dd6b20" opacity="0.78"/>
<circle cx="458.57" cy="331.74" r="3.4" fill="#dd6b20" opacity="0.78"/>
<circle cx="467.35" cy="328.91" r="3.4" fill="#dd6b20" opacity="0.78"/>
<circle cx="467.35" cy="328.91" r="3.4" fill="#dd6b20" opacity="0.78"/>
<circle cx="458.57" cy="331.74" r="3.4" fill="#dd6b20" opacity="0.78"/>
<circle cx="458.57" cy="331.74" r="3.4" fill="#dd6b20" opacity="0.78"/>
<circle cx="458.57" cy="331.74" r="3.4" fill="#dd6b20" opacity="0.78"/>
<circle cx="458.57" cy="331.74" r="3.4" fill="#dd6b20" opacity="0.78"/>
<circle cx="458.57" cy="331.74" r="3.4" fill="#dd6b20" opacity="0.78"/>
<circle cx="458.57" cy="331.74" r="3.4" fill="#dd6b20" opacity="0.78"/>
<circle cx="449.80" cy="334.57" r="3.4" fill="#dd6b20" opacity="0.78"/>
<circle cx="449.80" cy="334.57" r="3.4" fill="#dd6b20" opacity="0.78"/>
<circle cx="449.80" cy="334.57" r="3.4" fill="#dd6b20" opacity="0.78"/>
<circle cx="441.02" cy="340.22" r="3.4" fill="#dd6b20" opacity="0.78"/>
<circle cx="449.80" cy="334.57" r="3.4" fill="#dd6b20" opacity="0.78"/>
<circle cx="441.02" cy="340.22" r="3.4" fill="#dd6b20" opacity="0.78"/>
<circle cx="441.02" cy="340.22" r="3.4" fill="#dd6b20" opacity="0.78"/>
<circle cx="441.02" cy="340.22" r="3.4" fill="#dd6b20" opacity="0.78"/>
<circle cx="441.02" cy="340.22" r="3.4" fill="#dd6b20" opacity="0.78"/>
<circle cx="441.02" cy="340.22" r="3.4" fill="#dd6b20" opacity="0.78"/>
<circle cx="441.02" cy="340.22" r="3.4" fill="#dd6b20" opacity="0.78"/>
<circle cx="432.24" cy="343.04" r="3.4" fill="#dd6b20" opacity="0.78"/>
<circle cx="441.02" cy="340.22" r="3.4" fill="#dd6b20" opacity="0.78"/>
<circle cx="441.02" cy="340.22" r="3.4" fill="#dd6b20" opacity="0.78"/>
<circle cx="432.24" cy="343.04" r="3.4" fill="#dd6b20" opacity="0.78"/>
<circle cx="423.47" cy="348.70" r="3.4" fill="#dd6b20" opacity="0.78"/>
<circle cx="423.47" cy="348.70" r="3.4" fill="#dd6b20" opacity="0.78"/>
<circle cx="432.24" cy="343.04" r="3.4" fill="#dd6b20" opacity="0.78"/>
<circle cx="432.24" cy="343.04" r="3.4" fill="#dd6b20" opacity="0.78"/>
<circle cx="432.24" cy="343.04" r="3.4" fill="#dd6b20" opacity="0.78"/>
<circle cx="432.24" cy="343.04" r="3.4" fill="#dd6b20" opacity="0.78"/>
<circle cx="432.24" cy="343.04" r="3.4" fill="#dd6b20" opacity="0.78"/>
<circle cx="432.24" cy="343.04" r="3.4" fill="#dd6b20" opacity="0.78"/>
<circle cx="432.24" cy="343.04" r="3.4" fill="#dd6b20" opacity="0.78"/>
<circle cx="432.24" cy="343.04" r="3.4" fill="#dd6b20" opacity="0.78"/>
<circle cx="432.24" cy="343.04" r="3.4" fill="#dd6b20" opacity="0.78"/>
<circle cx="423.47" cy="348.70" r="3.4" fill="#dd6b20" opacity="0.78"/>
<circle cx="423.47" cy="348.70" r="3.4" fill="#dd6b20" opacity="0.78"/>
<circle cx="414.69" cy="351.52" r="3.4" fill="#dd6b20" opacity="0.78"/>
<circle cx="423.47" cy="348.70" r="3.4" fill="#dd6b20" opacity="0.78"/>
<circle cx="423.47" cy="348.70" r="3.4" fill="#dd6b20" opacity="0.78"/>
<circle cx="423.47" cy="348.70" r="3.4" fill="#dd6b20" opacity="0.78"/>
<circle cx="423.47" cy="348.70" r="3.4" fill="#dd6b20" opacity="0.78"/>
<circle cx="414.69" cy="351.52" r="3.4" fill="#dd6b20" opacity="0.78"/>
<circle cx="414.69" cy="351.52" r="3.4" fill="#dd6b20" opacity="0.78"/>
<circle cx="414.69" cy="351.52" r="3.4" fill="#dd6b20" opacity="0.78"/>
<circle cx="414.69" cy="351.52" r="3.4" fill="#dd6b20" opacity="0.78"/>
<circle cx="405.92" cy="354.35" r="3.4" fill="#dd6b20" opacity="0.78"/>
<circle cx="397.14" cy="360.00" r="3.4" fill="#dd6b20" opacity="0.78"/>
<circle cx="405.92" cy="354.35" r="3.4" fill="#dd6b20" opacity="0.78"/>
<circle cx="397.14" cy="360.00" r="3.4" fill="#dd6b20" opacity="0.78"/>
<circle cx="397.14" cy="360.00" r="3.4" fill="#dd6b20" opacity="0.78"/>
<circle cx="397.14" cy="360.00" r="3.4" fill="#dd6b20" opacity="0.78"/>
<circle cx="397.14" cy="360.00" r="3.4" fill="#dd6b20" opacity="0.78"/>
<circle cx="388.37" cy="362.83" r="3.4" fill="#dd6b20" opacity="0.78"/>
<circle cx="388.37" cy="362.83" r="3.4" fill="#dd6b20" opacity="0.78"/>
<circle cx="388.37" cy="362.83" r="3.4" fill="#dd6b20" opacity="0.78"/>
<circle cx="379.59" cy="368.48" r="3.4" fill="#dd6b20" opacity="0.78"/>
<circle cx="379.59" cy="368.48" r="3.4" fill="#dd6b20" opacity="0.78"/>
<circle cx="379.59" cy="368.48" r="3.4" fill="#dd6b20" opacity="0.78"/>
<circle cx="379.59" cy="368.48" r="3.4" fill="#dd6b20" opacity="0.78"/>
<circle cx="370.82" cy="371.30" r="3.4" fill="#dd6b20" opacity="0.78"/>
<circle cx="370.82" cy="371.30" r="3.4" fill="#dd6b20" opacity="0.78"/>
<circle cx="370.82" cy="371.30" r="3.4" fill="#dd6b20" opacity="0.78"/>
<circle cx="370.82" cy="371.30" r="3.4" fill="#dd6b20" opacity="0.78"/>
<circle cx="362.04" cy="374.13" r="3.4" fill="#dd6b20" opacity="0.78"/>
<circle cx="353.27" cy="379.78" r="3.4" fill="#dd6b20" opacity="0.78"/>
<circle cx="353.27" cy="379.78" r="3.4" fill="#dd6b20" opacity="0.78"/>
<circle cx="353.27" cy="379.78" r="3.4" fill="#dd6b20" opacity="0.78"/>
<circle cx="353.27" cy="379.78" r="3.4" fill="#dd6b20" opacity="0.78"/>
<circle cx="353.27" cy="379.78" r="3.4" fill="#dd6b20" opacity="0.78"/>
<circle cx="353.27" cy="379.78" r="3.4" fill="#dd6b20" opacity="0.78"/>
<circle cx="344.49" cy="382.61" r="3.4" fill="#dd6b20" opacity="0.78"/>
<circle cx="344.49" cy="382.61" r="3.4" fill="#dd6b20" opacity="0.78"/>
<circle cx="353.27" cy="379.78" r="3.4" fill="#dd6b20" opacity="0.78"/>
<circle cx="344.49" cy="382.61" r="3.4" fill="#dd6b20" opacity="0.78"/>
<circle cx="344.49" cy="382.61" r="3.4" fill="#dd6b20" opacity="0.78"/>
<circle cx="344.49" cy="382.61" r="3.4" fill="#dd6b20" opacity="0.78"/>
<circle cx="344.49" cy="382.61" r="3.4" fill="#dd6b20" opacity="0.78"/>
<circle cx="344.49" cy="382.61" r="3.4" fill="#dd6b20" opacity="0.78"/>
<circle cx="353.27" cy="379.78" r="3.4" fill="#dd6b20" opacity="0.78"/>
<circle cx="335.71" cy="385.43" r="3.4" fill="#dd6b20" opacity="0.78"/>
<circle cx="344.49" cy="382.61" r="3.4" fill="#dd6b20" opacity="0.78"/>
<circle cx="344.49" cy="382.61" r="3.4" fill="#dd6b20" opacity="0.78"/>
<circle cx="344.49" cy="382.61" r="3.4" fill="#dd6b20" opacity="0.78"/>
<circle cx="344.49" cy="382.61" r="3.4" fill="#dd6b20" opacity="0.78"/>
<circle cx="344.49" cy="382.61" r="3.4" fill="#dd6b20" opacity="0.78"/>
<circle cx="344.49" cy="382.61" r="3.4" fill="#dd6b20" opacity="0.78"/>
<circle cx="335.71" cy="385.43" r="3.4" fill="#dd6b20" opacity="0.78"/>
<circle cx="335.71" cy="385.43" r="3.4" fill="#dd6b20" opacity="0.78"/>
<circle cx="335.71" cy="385.43" r="3.4" fill="#dd6b20" opacity="0.78"/>
<circle cx="335.71" cy="385.43" r="3.4" fill="#dd6b20" opacity="0.78"/>
<circle cx="335.71" cy="385.43" r="3.4" fill="#dd6b20" opacity="0.78"/>
<circle cx="335.71" cy="385.43" r="3.4" fill="#dd6b20" opacity="0.78"/>
<circle cx="335.71" cy="385.43" r="3.4" fill="#dd6b20" opacity="0.78"/>
<circle cx="335.71" cy="385.43" r="3.4" fill="#dd6b20" opacity="0.78"/>
<circle cx="335.71" cy="385.43" r="3.4" fill="#dd6b20" opacity="0.78"/>
<circle cx="326.94" cy="391.09" r="3.4" fill="#dd6b20" opacity="0.78"/>
<circle cx="335.71" cy="385.43" r="3.4" fill="#dd6b20" opacity="0.78"/>
<circle cx="335.71" cy="385.43" r="3.4" fill="#dd6b20" opacity="0.78"/>
<circle cx="326.94" cy="391.09" r="3.4" fill="#dd6b20" opacity="0.78"/>
<circle cx="326.94" cy="391.09" r="3.4" fill="#dd6b20" opacity="0.78"/>
<circle cx="326.94" cy="391.09" r="3.4" fill="#dd6b20" opacity="0.78"/>
<circle cx="326.94" cy="391.09" r="3.4" fill="#dd6b20" opacity="0.78"/>
<circle cx="326.94" cy="391.09" r="3.4" fill="#dd6b20" opacity="0.78"/>
<circle cx="318.16" cy="393.91" r="3.4" fill="#dd6b20" opacity="0.78"/>
<circle cx="318.16" cy="393.91" r="3.4" fill="#dd6b20" opacity="0.78"/>
<circle cx="318.16" cy="393.91" r="3.4" fill="#dd6b20" opacity="0.78"/>
<circle cx="318.16" cy="393.91" r="3.4" fill="#dd6b20" opacity="0.78"/>
<circle cx="318.16" cy="393.91" r="3.4" fill="#dd6b20" opacity="0.78"/>
<circle cx="309.39" cy="396.74" r="3.4" fill="#dd6b20" opacity="0.78"/>
<circle cx="309.39" cy="396.74" r="3.4" fill="#dd6b20" opacity="0.78"/>
<circle cx="309.39" cy="396.74" r="3.4" fill="#dd6b20" opacity="0.78"/>
<circle cx="300.61" cy="402.39" r="3.4" fill="#dd6b20" opacity="0.78"/>
<circle cx="309.39" cy="396.74" r="3.4" fill="#dd6b20" opacity="0.78"/>
<circle cx="300.61" cy="402.39" r="3.4" fill="#dd6b20" opacity="0.78"/>
<circle cx="300.61" cy="402.39" r="3.4" fill="#dd6b20" opacity="0.78"/>
<circle cx="300.61" cy="402.39" r="3.4" fill="#dd6b20" opacity="0.78"/>
<circle cx="300.61" cy="402.39" r="3.4" fill="#dd6b20" opacity="0.78"/>
<circle cx="300.61" cy="402.39" r="3.4" fill="#dd6b20" opacity="0.78"/>
<circle cx="300.61" cy="402.39" r="3.4" fill="#dd6b20" opacity="0.78"/>
<circle cx="300.61" cy="402.39" r="3.4" fill="#dd6b20" opacity="0.78"/>
<circle cx="300.61" cy="402.39" r="3.4" fill="#dd6b20" opacity="0.78"/>
<circle cx="300.61" cy="402.39" r="3.4" fill="#dd6b20" opacity="0.78"/>
<circle cx="291.84" cy="405.22" r="3.4" fill="#dd6b20" opacity="0.78"/>
<circle cx="291.84" cy="405.22" r="3.4" fill="#dd6b20" opacity="0.78"/>
<circle cx="300.61" cy="402.39" r="3.4" fill="#dd6b20" opacity="0.78"/>
<circle cx="291.84" cy="405.22" r="3.4" fill="#dd6b20" opacity="0.78"/>
<circle cx="291.84" cy="405.22" r="3.4" fill="#dd6b20" opacity="0.78"/>
<circle cx="300.61" cy="402.39" r="3.4" fill="#dd6b20" opacity="0.78"/>
<circle cx="291.84" cy="405.22" r="3.4" fill="#dd6b20" opacity="0.78"/>
<circle cx="300.61" cy="402.39" r="3.4" fill="#dd6b20" opacity="0.78"/>
<circle cx="291.84" cy="405.22" r="3.4" fill="#dd6b20" opacity="0.78"/>
<circle cx="291.84" cy="405.22" r="3.4" fill="#dd6b20" opacity="0.78"/>
<circle cx="300.61" cy="402.39" r="3.4" fill="#dd6b20" opacity="0.78"/>
<circle cx="291.84" cy="405.22" r="3.4" fill="#dd6b20" opacity="0.78"/>
<circle cx="291.84" cy="405.22" r="3.4" fill="#dd6b20" opacity="0.78"/>
<circle cx="300.61" cy="402.39" r="3.4" fill="#dd6b20" opacity="0.78"/>
<circle cx="291.84" cy="405.22" r="3.4" fill="#dd6b20" opacity="0.78"/>
<circle cx="291.84" cy="405.22" r="3.4" fill="#dd6b20" opacity="0.78"/>
<circle cx="291.84" cy="405.22" r="3.4" fill="#dd6b20" opacity="0.78"/>
<circle cx="291.84" cy="405.22" r="3.4" fill="#dd6b20" opacity="0.78"/>
<circle cx="291.84" cy="405.22" r="3.4" fill="#dd6b20" opacity="0.78"/>
<circle cx="283.06" cy="408.04" r="3.4" fill="#dd6b20" opacity="0.78"/>
<circle cx="283.06" cy="408.04" r="3.4" fill="#dd6b20" opacity="0.78"/>
<circle cx="291.84" cy="405.22" r="3.4" fill="#dd6b20" opacity="0.78"/>
<circle cx="283.06" cy="408.04" r="3.4" fill="#dd6b20" opacity="0.78"/>
<circle cx="283.06" cy="408.04" r="3.4" fill="#dd6b20" opacity="0.78"/>
<circle cx="283.06" cy="408.04" r="3.4" fill="#dd6b20" opacity="0.78"/>
<circle cx="283.06" cy="408.04" r="3.4" fill="#dd6b20" opacity="0.78"/>
<circle cx="283.06" cy="408.04" r="3.4" fill="#dd6b20" opacity="0.78"/>
<circle cx="274.29" cy="413.70" r="3.4" fill="#dd6b20" opacity="0.78"/>
<circle cx="283.06" cy="408.04" r="3.4" fill="#dd6b20" opacity="0.78"/>
<circle cx="274.29" cy="413.70" r="3.4" fill="#dd6b20" opacity="0.78"/>
<circle cx="274.29" cy="413.70" r="3.4" fill="#dd6b20" opacity="0.78"/>
<circle cx="274.29" cy="413.70" r="3.4" fill="#dd6b20" opacity="0.78"/>
<circle cx="274.29" cy="413.70" r="3.4" fill="#dd6b20" opacity="0.78"/>
<circle cx="274.29" cy="413.70" r="3.4" fill="#dd6b20" opacity="0.78"/>
<circle cx="274.29" cy="413.70" r="3.4" fill="#dd6b20" opacity="0.78"/>
<circle cx="274.29" cy="413.70" r="3.4" fill="#dd6b20" opacity="0.78"/>
<circle cx="274.29" cy="413.70" r="3.4" fill="#dd6b20" opacity="0.78"/>
<circle cx="265.51" cy="416.52" r="3.4" fill="#dd6b20" opacity="0.78"/>
<circle cx="265.51" cy="416.52" r="3.4" fill="#dd6b20" opacity="0.78"/>
<circle cx="265.51" cy="416.52" r="3.4" fill="#dd6b20" opacity="0.78"/>
<circle cx="265.51" cy="416.52" r="3.4" fill="#dd6b20" opacity="0.78"/>
<circle cx="265.51" cy="416.52" r="3.4" fill="#dd6b20" opacity="0.78"/>
<circle cx="265.51" cy="416.52" r="3.4" fill="#dd6b20" opacity="0.78"/>
<circle cx="265.51" cy="416.52" r="3.4" fill="#dd6b20" opacity="0.78"/>
<circle cx="256.73" cy="419.35" r="3.4" fill="#dd6b20" opacity="0.78"/>
<circle cx="256.73" cy="419.35" r="3.4" fill="#dd6b20" opacity="0.78"/>
<circle cx="256.73" cy="419.35" r="3.4" fill="#dd6b20" opacity="0.78"/>
<circle cx="256.73" cy="419.35" r="3.4" fill="#dd6b20" opacity="0.78"/>
<circle cx="247.96" cy="425.00" r="3.4" fill="#dd6b20" opacity="0.78"/>
<circle cx="256.73" cy="419.35" r="3.4" fill="#dd6b20" opacity="0.78"/>
<circle cx="256.73" cy="419.35" r="3.4" fill="#dd6b20" opacity="0.78"/>
<circle cx="247.96" cy="425.00" r="3.4" fill="#dd6b20" opacity="0.78"/>
<circle cx="247.96" cy="425.00" r="3.4" fill="#dd6b20" opacity="0.78"/>
<circle cx="239.18" cy="427.83" r="3.4" fill="#dd6b20" opacity="0.78"/>
<circle cx="247.96" cy="425.00" r="3.4" fill="#dd6b20" opacity="0.78"/>
<circle cx="247.96" cy="425.00" r="3.4" fill="#dd6b20" opacity="0.78"/>
<circle cx="239.18" cy="427.83" r="3.4" fill="#dd6b20" opacity="0.78"/>
<circle cx="239.18" cy="427.83" r="3.4" fill="#dd6b20" opacity="0.78"/>
<circle cx="239.18" cy="427.83" r="3.4" fill="#dd6b20" opacity="0.78"/>
<circle cx="230.41" cy="430.65" r="3.4" fill="#dd6b20" opacity="0.78"/>
<circle cx="239.18" cy="427.83" r="3.4" fill="#dd6b20" opacity="0.78"/>
<circle cx="239.18" cy="427.83" r="3.4" fill="#dd6b20" opacity="0.78"/>
<circle cx="230.41" cy="430.65" r="3.4" fill="#dd6b20" opacity="0.78"/>
<circle cx="230.41" cy="430.65" r="3.4" fill="#dd6b20" opacity="0.78"/>
<circle cx="221.63" cy="436.30" r="3.4" fill="#dd6b20" opacity="0.78"/>
<circle cx="230.41" cy="430.65" r="3.4" fill="#dd6b20" opacity="0.78"/>
<circle cx="230.41" cy="430.65" r="3.4" fill="#dd6b20" opacity="0.78"/>
<circle cx="221.63" cy="436.30" r="3.4" fill="#dd6b20" opacity="0.78"/>
<circle cx="221.63" cy="436.30" r="3.4" fill="#dd6b20" opacity="0.78"/>
<circle cx="212.86" cy="439.13" r="3.4" fill="#dd6b20" opacity="0.78"/>
<circle cx="221.63" cy="436.30" r="3.4" fill="#dd6b20" opacity="0.78"/>
<circle cx="221.63" cy="436.30" r="3.4" fill="#dd6b20" opacity="0.78"/>
<circle cx="221.63" cy="436.30" r="3.4" fill="#dd6b20" opacity="0.78"/>
<circle cx="212.86" cy="439.13" r="3.4" fill="#dd6b20" opacity="0.78"/>
<circle cx="204.08" cy="441.96" r="3.4" fill="#dd6b20" opacity="0.78"/>
<circle cx="212.86" cy="439.13" r="3.4" fill="#dd6b20" opacity="0.78"/>
<circle cx="212.86" cy="439.13" r="3.4" fill="#dd6b20" opacity="0.78"/>
<circle cx="204.08" cy="441.96" r="3.4" fill="#dd6b20" opacity="0.78"/>
<circle cx="204.08" cy="441.96" r="3.4" fill="#dd6b20" opacity="0.78"/>
<circle cx="204.08" cy="441.96" r="3.4" fill="#dd6b20" opacity="0.78"/>
<circle cx="204.08" cy="441.96" r="3.4" fill="#dd6b20" opacity="0.78"/>
<circle cx="204.08" cy="441.96" r="3.4" fill="#dd6b20" opacity="0.78"/>
<circle cx="195.31" cy="447.61" r="3.4" fill="#dd6b20" opacity="0.78"/>
<circle cx="204.08" cy="441.96" r="3.4" fill="#dd6b20" opacity="0.78"/>
<circle cx="195.31" cy="447.61" r="3.4" fill="#dd6b20" opacity="0.78"/>
<circle cx="195.31" cy="447.61" r="3.4" fill="#dd6b20" opacity="0.78"/>
<circle cx="195.31" cy="447.61" r="3.4" fill="#dd6b20" opacity="0.78"/>
<circle cx="195.31" cy="447.61" r="3.4" fill="#dd6b20" opacity="0.78"/>
<circle cx="195.31" cy="447.61" r="3.4" fill="#dd6b20" opacity="0.78"/>
<circle cx="186.53" cy="450.43" r="3.4" fill="#dd6b20" opacity="0.78"/>
<circle cx="186.53" cy="450.43" r="3.4" fill="#dd6b20" opacity="0.78"/>
<circle cx="195.31" cy="447.61" r="3.4" fill="#dd6b20" opacity="0.78"/>
<circle cx="186.53" cy="450.43" r="3.4" fill="#dd6b20" opacity="0.78"/>
<circle cx="186.53" cy="450.43" r="3.4" fill="#dd6b20" opacity="0.78"/>
<circle cx="186.53" cy="450.43" r="3.4" fill="#dd6b20" opacity="0.78"/>
<circle cx="186.53" cy="450.43" r="3.4" fill="#dd6b20" opacity="0.78"/>
<circle cx="186.53" cy="450.43" r="3.4" fill="#dd6b20" opacity="0.78"/>
<circle cx="186.53" cy="450.43" r="3.4" fill="#dd6b20" opacity="0.78"/>
<circle cx="186.53" cy="450.43" r="3.4" fill="#dd6b20" opacity="0.78"/>
<circle cx="186.53" cy="450.43" r="3.4" fill="#dd6b20" opacity="0.78"/>
<circle cx="186.53" cy="450.43" r="3.4" fill="#dd6b20" opacity="0.78"/>
<circle cx="186.53" cy="450.43" r="3.4" fill="#dd6b20" opacity="0.78"/>
<circle cx="186.53" cy="450.43" r="3.4" fill="#dd6b20" opacity="0.78"/>
<circle cx="186.53" cy="450.43" r="3.4" fill="#dd6b20" opacity="0.78"/>
<circle cx="186.53" cy="450.43" r="3.4" fill="#dd6b20" opacity="0.78"/>
<circle cx="186.53" cy="450.43" r="3.4" fill="#dd6b20" opacity="0.78"/>
<circle cx="186.53" cy="450.43" r="3.4" fill="#dd6b20" opacity="0.78"/>
<circle cx="186.53" cy="450.43" r="3.4" fill="#dd6b20" opacity="0.78"/>
<circle cx="177.76" cy="453.26" r="3.4" fill="#dd6b20" opacity="0.78"/>
<circle cx="186.53" cy="450.43" r="3.4" fill="#dd6b20" opacity="0.78"/>
<circle cx="177.76" cy="453.26" r="3.4" fill="#dd6b20" opacity="0.78"/>
<circle cx="186.53" cy="450.43" r="3.4" fill="#dd6b20" opacity="0.78"/>
<circle cx="186.53" cy="450.43" r="3.4" fill="#dd6b20" opacity="0.78"/>
<circle cx="177.76" cy="453.26" r="3.4" fill="#dd6b20" opacity="0.78"/>
<circle cx="186.53" cy="450.43" r="3.4" fill="#dd6b20" opacity="0.78"/>
<circle cx="177.76" cy="453.26" r="3.4" fill="#dd6b20" opacity="0.78"/>
<circle cx="177.76" cy="453.26" r="3.4" fill="#dd6b20" opacity="0.78"/>
<circle cx="177.76" cy="453.26" r="3.4" fill="#dd6b20" opacity="0.78"/>
<circle cx="177.76" cy="453.26" r="3.4" fill="#dd6b20" opacity="0.78"/>
<circle cx="177.76" cy="453.26" r="3.4" fill="#dd6b20" opacity="0.78"/>
<circle cx="177.76" cy="453.26" r="3.4" fill="#dd6b20" opacity="0.78"/>
<circle cx="177.76" cy="453.26" r="3.4" fill="#dd6b20" opacity="0.78"/>
<circle cx="177.76" cy="453.26" r="3.4" fill="#dd6b20" opacity="0.78"/>
<circle cx="177.76" cy="453.26" r="3.4" fill="#dd6b20" opacity="0.78"/>
<circle cx="177.76" cy="453.26" r="3.4" fill="#dd6b20" opacity="0.78"/>
<circle cx="177.76" cy="453.26" r="3.4" fill="#dd6b20" opacity="0.78"/>
<circle cx="168.98" cy="456.09" r="3.4" fill="#dd6b20" opacity="0.78"/>
<circle cx="177.76" cy="453.26" r="3.4" fill="#dd6b20" opacity="0.78"/>
<circle cx="168.98" cy="456.09" r="3.4" fill="#dd6b20" opacity="0.78"/>
<circle cx="177.76" cy="453.26" r="3.4" fill="#dd6b20" opacity="0.78"/>
<circle cx="168.98" cy="456.09" r="3.4" fill="#dd6b20" opacity="0.78"/>
<circle cx="177.76" cy="453.26" r="3.4" fill="#dd6b20" opacity="0.78"/>
<circle cx="168.98" cy="456.09" r="3.4" fill="#dd6b20" opacity="0.78"/>
<circle cx="168.98" cy="456.09" r="3.4" fill="#dd6b20" opacity="0.78"/>
<circle cx="168.98" cy="456.09" r="3.4" fill="#dd6b20" opacity="0.78"/>
<circle cx="168.98" cy="456.09" r="3.4" fill="#dd6b20" opacity="0.78"/>
<circle cx="168.98" cy="456.09" r="3.4" fill="#dd6b20" opacity="0.78"/>
<circle cx="168.98" cy="456.09" r="3.4" fill="#dd6b20" opacity="0.78"/>
<circle cx="168.98" cy="456.09" r="3.4" fill="#dd6b20" opacity="0.78"/>
<circle cx="168.98" cy="456.09" r="3.4" fill="#dd6b20" opacity="0.78"/>
<circle cx="168.98" cy="456.09" r="3.4" fill="#dd6b20" opacity="0.78"/>
<circle cx="168.98" cy="456.09" r="3.4" fill="#dd6b20" opacity="0.78"/>
<circle cx="168.98" cy="456.09" r="3.4" fill="#dd6b20" opacity="0.78"/>
<circle cx="160.20" cy="461.74" r="3.4" fill="#dd6b20" opacity="0.78"/>
<circle cx="160.20" cy="461.74" r="3.4" fill="#dd6b20" opacity="0.78"/>
<circle cx="160.20" cy="461.74" r="3.4" fill="#dd6b20" opacity="0.78"/>
<circle cx="160.20" cy="461.74" r="3.4" fill="#dd6b20" opacity="0.78"/>
<circle cx="151.43" cy="464.57" r="3.4" fill="#dd6b20" opacity="0.78"/>
<circle cx="160.20" cy="461.74" r="3.4" fill="#dd6b20" opacity="0.78"/>
<circle cx="151.43" cy="464.57" r="3.4" fill="#dd6b20" opacity="0.78"/>
<circle cx="151.43" cy="464.57" r="3.4" fill="#dd6b20" opacity="0.78"/>
<circle cx="151.43" cy="464.57" r="3.4" fill="#dd6b20" opacity="0.78"/>
<circle cx="151.43" cy="464.57" r="3.4" fill="#dd6b20" opacity="0.78"/>
<circle cx="142.65" cy="467.39" r="3.4" fill="#dd6b20" opacity="0.78"/>
<circle cx="142.65" cy="467.39" r="3.4" fill="#dd6b20" opacity="0.78"/>
<circle cx="142.65" cy="467.39" r="3.4" fill="#dd6b20" opacity="0.78"/>
<circle cx="142.65" cy="467.39" r="3.4" fill="#dd6b20" opacity="0.78"/>
<circle cx="142.65" cy="467.39" r="3.4" fill="#dd6b20" opacity="0.78"/>
<circle cx="142.65" cy="467.39" r="3.4" fill="#dd6b20" opacity="0.78"/>
<circle cx="142.65" cy="467.39" r="3.4" fill="#dd6b20" opacity="0.78"/>
<circle cx="142.65" cy="467.39" r="3.4" fill="#dd6b20" opacity="0.78"/>
<circle cx="133.88" cy="473.04" r="3.4" fill="#dd6b20" opacity="0.78"/>
<circle cx="133.88" cy="473.04" r="3.4" fill="#dd6b20" opacity="0.78"/>
<circle cx="142.65" cy="467.39" r="3.4" fill="#dd6b20" opacity="0.78"/>
<circle cx="133.88" cy="473.04" r="3.4" fill="#dd6b20" opacity="0.78"/>
<circle cx="133.88" cy="473.04" r="3.4" fill="#dd6b20" opacity="0.78"/>
<circle cx="133.88" cy="473.04" r="3.4" fill="#dd6b20" opacity="0.78"/>
<circle cx="125.10" cy="475.87" r="3.4" fill="#dd6b20" opacity="0.78"/>
<circle cx="125.10" cy="475.87" r="3.4" fill="#dd6b20" opacity="0.78"/>
<circle cx="125.10" cy="475.87" r="3.4" fill="#dd6b20" opacity="0.78"/>
<circle cx="125.10" cy="475.87" r="3.4" fill="#dd6b20" opacity="0.78"/>
<circle cx="133.88" cy="473.04" r="3.4" fill="#dd6b20" opacity="0.78"/>
<circle cx="125.10" cy="475.87" r="3.4" fill="#dd6b20" opacity="0.78"/>
<circle cx="125.10" cy="475.87" r="3.4" fill="#dd6b20" opacity="0.78"/>
<circle cx="125.10" cy="475.87" r="3.4" fill="#dd6b20" opacity="0.78"/>
<circle cx="116.33" cy="478.70" r="3.4" fill="#dd6b20" opacity="0.78"/>
<circle cx="125.10" cy="475.87" r="3.4" fill="#dd6b20" opacity="0.78"/>
<circle cx="116.33" cy="478.70" r="3.4" fill="#dd6b20" opacity="0.78"/>
<circle cx="116.33" cy="478.70" r="3.4" fill="#dd6b20" opacity="0.78"/>
<circle cx="116.33" cy="478.70" r="3.4" fill="#dd6b20" opacity="0.78"/>
<circle cx="125.10" cy="475.87" r="3.4" fill="#dd6b20" opacity="0.78"/>
<circle cx="116.33" cy="478.70" r="3.4" fill="#dd6b20" opacity="0.78"/>
<circle cx="116.33" cy="478.70" r="3.4" fill="#dd6b20" opacity="0.78"/>
<circle cx="107.55" cy="481.52" r="3.4" fill="#dd6b20" opacity="0.78"/>
<circle cx="107.55" cy="481.52" r="3.4" fill="#dd6b20" opacity="0.78"/>
<circle cx="107.55" cy="481.52" r="3.4" fill="#dd6b20" opacity="0.78"/>
<circle cx="107.55" cy="481.52" r="3.4" fill="#dd6b20" opacity="0.78"/>
<circle cx="107.55" cy="481.52" r="3.4" fill="#dd6b20" opacity="0.78"/>
<circle cx="98.78" cy="487.17" r="3.4" fill="#dd6b20" opacity="0.78"/>
<circle cx="107.55" cy="481.52" r="3.4" fill="#dd6b20" opacity="0.78"/>
<circle cx="98.78" cy="487.17" r="3.4" fill="#dd6b20" opacity="0.78"/>
<circle cx="107.55" cy="481.52" r="3.4" fill="#dd6b20" opacity="0.78"/>
<circle cx="98.78" cy="487.17" r="3.4" fill="#dd6b20" opacity="0.78"/>
<circle cx="98.78" cy="487.17" r="3.4" fill="#dd6b20" opacity="0.78"/>
<circle cx="98.78" cy="487.17" r="3.4" fill="#dd6b20" opacity="0.78"/>
<circle cx="98.78" cy="487.17" r="3.4" fill="#dd6b20" opacity="0.78"/>
<circle cx="98.78" cy="487.17" r="3.4" fill="#dd6b20" opacity="0.78"/>
<circle cx="90.00" cy="490.00" r="3.4" fill="#dd6b20" opacity="0.78"/>
<circle cx="98.78" cy="487.17" r="3.4" fill="#dd6b20" opacity="0.78"/>
<circle cx="98.78" cy="487.17" r="3.4" fill="#dd6b20" opacity="0.78"/>
<text x="500.0" y="542" text-anchor="middle" fill="#4e6678" font-size="13" font-family="Segoe UI">Gage height (ft)</text>
<text x="24" y="280.0" transform="rotate(-90 24 280.0)" fill="#4e6678" font-size="13" font-family="Segoe UI">Discharge (cfs)</text>
</svg>